<?xml version="1.0" encoding="UTF-8" standalone="no"?>
<svg
   xmlns:dc="http://purl.org/dc/elements/1.1/"
   xmlns:cc="http://creativecommons.org/ns#"
   xmlns:rdf="http://www.w3.org/1999/02/22-rdf-syntax-ns#"
   xmlns:svg="http://www.w3.org/2000/svg"
   xmlns="http://www.w3.org/2000/svg"
   xmlns:sodipodi="http://sodipodi.sourceforge.net/DTD/sodipodi-0.dtd"
   xmlns:inkscape="http://www.inkscape.org/namespaces/inkscape"
   id="svg3092"
   sodipodi:docname="sen.svg"
   viewBox="0 0 100.09 100.09"
   version="1.1"
   inkscape:version="1.0.2 (e86c870879, 2021-01-15)">
  <defs
     id="defs3094">
    <filter
       style="color-interpolation-filters:sRGB"
       inkscape:label="Colorize"
       id="filter1773">
      <feComposite
         in2="SourceGraphic"
         operator="arithmetic"
         k1="1.61448"
         k2="0.894931"
         result="composite1"
         id="feComposite1759"
         k3="0"
         k4="0" />
      <feColorMatrix
         in="composite1"
         values="0"
         type="saturate"
         result="colormatrix1"
         id="feColorMatrix1761" />
      <feFlood
         flood-opacity="0.627451"
         flood-color="rgb(8,0,76)"
         result="flood1"
         id="feFlood1763" />
      <feBlend
         in="flood1"
         in2="colormatrix1"
         mode="normal"
         result="blend1"
         id="feBlend1765" />
      <feBlend
         in2="blend1"
         mode="screen"
         result="blend2"
         id="feBlend1767" />
      <feColorMatrix
         in="blend2"
         values="1"
         type="saturate"
         result="colormatrix2"
         id="feColorMatrix1769" />
      <feComposite
         in="colormatrix2"
         in2="SourceGraphic"
         operator="in"
         result="composite2"
         id="feComposite1771" />
    </filter>
    <filter
       style="color-interpolation-filters:sRGB"
       inkscape:label="Colorize"
       id="filter1741">
      <feComposite
         in2="SourceGraphic"
         operator="arithmetic"
         k1="1.61448"
         k2="0.894931"
         result="composite1"
         id="feComposite1727"
         k3="0"
         k4="0" />
      <feColorMatrix
         in="composite1"
         values="0"
         type="saturate"
         result="colormatrix1"
         id="feColorMatrix1729" />
      <feFlood
         flood-opacity="0.627451"
         flood-color="rgb(1,76,0)"
         result="flood1"
         id="feFlood1731" />
      <feBlend
         in="flood1"
         in2="colormatrix1"
         mode="normal"
         result="blend1"
         id="feBlend1733" />
      <feBlend
         in2="blend1"
         mode="screen"
         result="blend2"
         id="feBlend1735" />
      <feColorMatrix
         in="blend2"
         values="1"
         type="saturate"
         result="colormatrix2"
         id="feColorMatrix1737" />
      <feComposite
         in="colormatrix2"
         in2="SourceGraphic"
         operator="in"
         result="fbSourceGraphic"
         id="feComposite1739" />
      <feColorMatrix
         result="fbSourceGraphicAlpha"
         in="fbSourceGraphic"
         values="0 0 0 -1 0 0 0 0 -1 0 0 0 0 -1 0 0 0 0 1 0"
         id="feColorMatrix1743" />
      <feComposite
         in2="fbSourceGraphic"
         id="feComposite1745"
         operator="arithmetic"
         k1="1.61448"
         k2="0.894931"
         result="composite1"
         in="fbSourceGraphic"
         k3="0"
         k4="0" />
      <feColorMatrix
         id="feColorMatrix1747"
         in="composite1"
         values="0"
         type="saturate"
         result="colormatrix1" />
      <feFlood
         id="feFlood1749"
         flood-opacity="0.627451"
         flood-color="rgb(1,76,0)"
         result="flood1" />
      <feBlend
         in2="colormatrix1"
         id="feBlend1751"
         in="flood1"
         mode="normal"
         result="blend1" />
      <feBlend
         in2="blend1"
         id="feBlend1753"
         mode="screen"
         result="blend2" />
      <feColorMatrix
         id="feColorMatrix1755"
         in="blend2"
         values="1"
         type="saturate"
         result="colormatrix2" />
      <feComposite
         in2="fbSourceGraphic"
         id="feComposite1757"
         in="colormatrix2"
         operator="in"
         result="composite2" />
    </filter>
    <filter
       id="filter4442"
       inkscape:collect="always"
       color-interpolation-filters="sRGB">
      <feGaussianBlur
         id="feGaussianBlur4444"
         stdDeviation="2.6425001"
         inkscape:collect="always" />
    </filter>
    <linearGradient
       id="linearGradient4538"
       y2="285.85999"
       gradientUnits="userSpaceOnUse"
       x2="180.98"
       gradientTransform="translate(-32.927,-10.729)"
       y1="213.52"
       x1="166.89999"
       inkscape:collect="always">
      <stop
         id="stop3749"
         style="stop-color:#ffffff"
         offset="0" />
      <stop
         id="stop3751"
         style="stop-color:#ffffff;stop-opacity:0"
         offset="1" />
    </linearGradient>
    <linearGradient
       id="linearGradient4540"
       y2="342.16"
       gradientUnits="userSpaceOnUse"
       x2="176.11"
       gradientTransform="translate(-25.527,-7.0293)"
       y1="214.35001"
       x1="160.56"
       inkscape:collect="always">
      <stop
         id="stop3780"
         style="stop-color:#c8ccc9"
         offset="0" />
      <stop
         id="stop3782"
         style="stop-color:#a9a0a2"
         offset="1" />
    </linearGradient>
    <filter
       id="filter3801"
       inkscape:collect="always"
       color-interpolation-filters="sRGB">
      <feGaussianBlur
         id="feGaussianBlur3803"
         stdDeviation="0.18863281"
         inkscape:collect="always" />
    </filter>
    <filter
       id="filter3919"
       height="1.3988"
       width="1.3281"
       color-interpolation-filters="sRGB"
       y="-0.19938"
       x="-0.16405"
       inkscape:collect="always">
      <feGaussianBlur
         id="feGaussianBlur3921"
         stdDeviation="2.9635091"
         inkscape:collect="always" />
    </filter>
    <filter
       id="filter3961"
       height="1.0266"
       width="1.247"
       color-interpolation-filters="sRGB"
       y="-0.013291"
       x="-0.12352"
       inkscape:collect="always">
      <feGaussianBlur
         id="feGaussianBlur3963"
         stdDeviation="0.6192185"
         inkscape:collect="always" />
    </filter>
    <filter
       style="color-interpolation-filters:sRGB;"
       inkscape:label="Opacity"
       id="filter2547">
      <feBlend
         in2="SourceGraphic"
         mode="multiply"
         result="fbSourceGraphic"
         id="feBlend2545" />
      <feColorMatrix
         result="fbSourceGraphicAlpha"
         in="fbSourceGraphic"
         values="0 0 0 -1 0 0 0 0 -1 0 0 0 0 -1 0 0 0 0 1 0"
         id="feColorMatrix2601" />
      <feColorMatrix
         id="feColorMatrix2603"
         values="1 0 0 0 0 0 1 0 0 0 0 0 1 0 0 0 0 0 5 -1 "
         result="colormatrix"
         in="fbSourceGraphic" />
      <feComposite
         in2="colormatrix"
         id="feComposite2605"
         operator="arithmetic"
         k2="0.708661"
         result="composite" />
    </filter>
  </defs>
  <sodipodi:namedview
     id="base"
     bordercolor="#666666"
     inkscape:pageshadow="2"
     inkscape:window-y="0"
     pagecolor="#ffffff"
     inkscape:window-height="1179"
     inkscape:window-maximized="1"
     inkscape:zoom="2.357878"
     inkscape:window-x="1920"
     showgrid="false"
     borderopacity="1.0"
     inkscape:current-layer="layer1"
     inkscape:cx="-12.085708"
     inkscape:cy="55.52801"
     inkscape:window-width="1920"
     inkscape:pageopacity="0.0"
     inkscape:document-units="px"
     inkscape:document-rotation="0" />
  <g
     id="layer1"
     inkscape:label="Layer 1"
     inkscape:groupmode="layer"
     transform="translate(0 -952.27)">
    <g
       id="g2877"
       transform="matrix(0.59773092,0,0,0.59773092,126.69054,399.0511)">
      <g
         id="g4523"
         transform="matrix(0.96041269,-0.0465704,0.0465704,0.96041269,-287.16596,747.02945)">
        <path
           id="path4369"
           style="color:#000000;text-indent:0;text-transform:none;fill:#000000;filter:url(#filter4442)"
           inkscape:connector-curvature="0"
           d="m 96.537,215.46 c -7.3642,0 -13.438,6.042 -13.438,13.406 v 100.97 c 0,7.3642 6.0733,13.438 13.438,13.438 h 109.59 c 7.3642,0 13.406,-6.0733 13.406,-13.438 v -0.2187 l -5.75,-100.75 v -0.21875 h -0.0312 c -0.12199,-7.262 -6.086,-13.188 -13.375,-13.188 h -103.84 z" />
        <path
           id="path3776"
           inkscape:connector-curvature="0"
           sodipodi:nodetypes="cccccccccccccc"
           style="color:#000000;text-indent:0;text-transform:none;fill:none;stroke:#b3b3b3"
           d="m 96.321,207.32 c -7.3642,0 -13.438,6.042 -13.438,13.406 v 100.97 c 0,7.3642 6.0733,13.438 13.438,13.438 l 109.59,4.0696 c 7.3642,0 13.406,-6.0733 13.406,-13.438 v -0.2187 l -5.75,-104.82 v -0.21875 h -0.0312 c -0.12199,-7.262 -6.086,-13.188 -13.375,-13.188 h -103.84 l -5e-5,-5e-5 z" />
        <path
           id="path3759"
           style="color:#000000;text-indent:0;text-transform:none;fill:#5c6260"
           inkscape:connector-curvature="0"
           d="m 96.059,211.5 c -7.3642,0 -13.438,6.1038 -13.438,13.543 v 102 c 0,7.4396 6.0733,13.575 13.438,13.575 h 109.59 c 7.3642,0 13.406,-6.1354 13.406,-13.575 v -0.22098 l -5.75,-101.78 v -0.22099 h -0.0312 c -0.12199,-7.3363 -6.086,-13.322 -13.375,-13.322 h -103.84 z" />
        <path
           id="path3739"
           style="color:#000000;text-indent:0;text-transform:none;fill:#717372"
           inkscape:connector-curvature="0"
           d="m 95.798,207.32 c -7.3642,0 -13.438,6.042 -13.438,13.406 v 100.97 c 0,7.3642 6.0733,13.438 13.438,13.438 h 109.59 c 7.3642,0 13.406,-6.0733 13.406,-13.438 v -0.2187 l -5.75,-100.75 v -0.21875 h -0.0312 c -0.12199,-7.262 -6.086,-13.188 -13.375,-13.188 h -103.84 z" />
        <path
           id="rect3728"
           style="color:#000000;text-indent:0;text-transform:none;fill:#cccccc"
           inkscape:connector-curvature="0"
           d="m 95.798,207.32 c -7.3642,0 -13.438,6.042 -13.438,13.406 v 100.97 c 0,7.3642 6.0733,13.438 13.438,13.438 h 109.59 c 7.3642,0 13.406,-6.0733 13.406,-13.438 v -0.2187 l -5.75,-100.75 v -0.21875 h -0.0312 c -0.12199,-7.262 -6.086,-13.188 -13.375,-13.188 h -103.84 z m 0,8 h 103.84 c 3.0706,0 5.4062,2.3356 5.4062,5.4062 v 0.2187 l 5.7812,100.75 h -0.0312 c 0,3.0706 -2.3356,5.4375 -5.4062,5.4375 H 95.798 c -3.0706,0 -5.4375,-2.3669 -5.4375,-5.4375 v -100.97 c 0,-3.0706 2.3669,-5.4062 5.4375,-5.4062 z" />
        <path
           id="path3735"
           inkscape:connector-curvature="0"
           sodipodi:nodetypes="ccccccccccccc"
           style="color:#000000;text-indent:0;text-transform:none;fill:#121212"
           d="m 95.691,217.67 h 101.81 c 3.0106,0 5.3006,2.2865 5.3006,5.2924 v 0.21417 l 5.6683,98.629 h -0.0306 c 0,3.006 -2.29,5.323 -5.3006,5.323 h -110.6 c -3.0106,0 -5.3312,-2.317 -5.3312,-5.323 l 3.1447,-98.843 c 0,-3.006 2.3206,-5.2924 5.3312,-5.2924 l -4e-5,-2e-5 z" />
        <path
           id="path3805"
           inkscape:connector-curvature="0"
           sodipodi:nodetypes="ccccccccccccc"
           style="color:#000000;text-indent:0;text-transform:none;fill:url(#linearGradient4538)"
           d="m 98.535,219.85 c -3.2233,0 -5.7812,2.5259 -5.7812,5.75 l -1.4768,60.375 c -0.003,0.54912 0.75017,0.92583 1.1875,0.59375 36.859,-27.527 77.138,-35.487 108.82,-39.062 0.38423,-0.0417 0.69636,-0.42811 0.65625,-0.8125 l -1.2143,-20.875 v -0.2187 c 0,-3.2241 -2.558,-5.75 -5.7812,-5.75 h -96.406 v -5e-5 z" />
        <path
           id="path3761"
           inkscape:connector-curvature="0"
           sodipodi:nodetypes="ccccccccccccccccccccccccccc"
           style="color:#000000;text-indent:0;text-transform:none;fill:url(#linearGradient4540)"
           d="m 95.798,207.32 c -7.3642,0 -13.438,6.042 -13.438,13.406 l -3.3297,100.97 c 0,7.3642 6.0733,13.438 13.438,13.438 h 112.92 c 7.3642,0 13.406,-6.0733 13.406,-13.438 v -0.2187 l -5.75,-100.75 v -0.21875 h -0.0312 c -0.12199,-7.262 -6.086,-13.188 -13.375,-13.188 h -103.84 l -5e-5,-5e-5 z m 0,8 h 103.84 c 3.0706,0 5.4062,2.3356 5.4062,5.4062 v 0.2187 l 5.7812,100.75 h -0.0312 c 0,3.0706 -2.3356,5.4375 -5.4062,5.4375 H 92.468 c -3.0706,0 -5.4375,-2.3669 -5.4375,-5.4375 l 3.3297,-100.97 c 0,-3.0706 2.3669,-5.4062 5.4375,-5.4062 l -5e-5,5e-5 z" />
        <path
           id="path3767"
           inkscape:connector-curvature="0"
           sodipodi:nodetypes="cccccccccccc"
           style="color:#000000;text-indent:0;text-transform:none;fill:#ffffff;fill-opacity:0.74809"
           d="m 96.409,207.5 c -7.0842,0.36996 -9.5239,3.3979 -12.264,8.3204 2.364,-4.7544 5.9782,-7.2904 12.106,-7.3829 h 102.74 c 7.3762,0 13.412,6.0585 13.536,13.469 h 0.0316 v 0.21875 l 0.15813,-1.2188 v -0.21875 h -0.0316 c -0.12346,-7.262 -6.1592,-13.188 -13.536,-13.188 h -102.74 z" />
        <path
           id="path3792"
           inkscape:connector-curvature="0"
           sodipodi:nodetypes="cccccccccccc"
           style="color:#000000;text-indent:0;text-transform:none;fill:#ffffff;filter:url(#filter3801)"
           d="m 78.981,320.28 v 1.0312 c 0,7.3642 6.0733,13.438 13.438,13.438 h 112.7 c 7.3642,0 13.406,-6.0733 13.406,-13.438 v -0.2187 l -0.0312,-0.375 c -0.23397,7.1654 -6.1574,13.486 -13.375,13.486 h -112.7 c -7.3642,0 -13.438,-6.5588 -13.438,-13.923 l -5e-5,-5e-5 z" />
        <path
           id="rect3814"
           inkscape:connector-curvature="0"
           style="color:#000000;fill:#ffffff;filter:url(#filter3919)"
           transform="matrix(0.8695,0,0,0.91398,-8.1822,11.572)"
           d="m 151.02,273.81 h 26.684 v 4.4473 h -26.68 v -4.45 z m -16.671,-2.9034 v -7.2012 l 17.863,-7.0231 -17.863,-6.9468 v -7.1504 l 25.599,11.069 v 6.1071 l -25.599,11.145" />
        <path
           id="path3821"
           style="color:#000000;fill:#ffffff"
           inkscape:connector-curvature="0"
           d="m 122.9,261.36 h 23.201 v 4.0647 h -23.2 v -4.06 z m -14.496,-2.6537 v -6.5818 l 15.532,-6.419 -15.532,-6.3492 v -6.5353 l 22.258,10.117 v 5.5817 l -22.258,10.187" />
        <path
           id="path3945"
           style="color:#000000;text-indent:0;text-transform:none;fill:#ffffff;filter:url(#filter3961)"
           inkscape:connector-curvature="0"
           d="m 199.69,214.97 c 3.0706,0 5.4062,2.3356 5.4062,5.4062 v 0.2187 l 5.7812,100.75 h -0.0312 c 0,3.0706 -2.3356,5.4375 -5.4062,5.4375 h 0.84375 c 3.0706,0 5.4062,-2.3669 5.4062,-5.4375 h 0.0312 l -5.7812,-100.75 v -0.2187 c 0,-3.0706 -2.3356,-5.4062 -5.4062,-5.4062 h -0.84 z" />
      </g>
      <g
         id="g2030"
         transform="matrix(0.18431167,-0.0192429,0.0192429,0.18431167,-377.58205,999.96022)"
         style="filter:url(#filter2547)">
        <g
           id="g1523"
           transform="translate(1250.6602,364.14733)"
           style="filter:url(#filter1773)">
          <g
             transform="translate(-8.7266,-380)"
             id="g1357">
            <polyline
               style="fill:#914b2d"
               id="polyline1355"
               points="0,140.6 0,141.3 0,146.3 4.6,148.9 8.9,151.4 13.3,153.9 17.6,156.4 21.9,158.9 26.3,161.4    30.6,163.9 34.9,166.4 37.8,168.1 42.1,170.6 46.4,173.1 50.7,175.6 55.1,178.1 59.4,180.6 63.7,183.1 68.1,185.6 72.4,188.1    76.7,190.6 81.1,193.1 83.2,190.8 84.1,191.3 84.8,191.7 89.1,194.2 93.5,196.7 97.8,199.2 97.9,199.4 99.9,204 102.9,205.7    107.3,208.2 111.6,210.7 115.9,213.2 120.2,215.7 124.6,218.2 128.9,220.7 133.2,223.2 137.6,225.7 141.9,228.2 146.7,230.9    151,233.4 155.3,235.9 159.6,238.4 164,240.9 168.3,243.4 172.6,245.9 177,248.4 181.3,250.9 185.6,253.4 185.6,253.4 185.6,253.4    188.9,251.5 188.9,251.5 188.9,251.5 189.7,252 194.1,254.5 198.4,257 202.7,259.5 203,260.2 205.1,264.7 209.9,267.5 214.2,270    218.6,272.5 222.9,275 227.2,277.5 231.6,280 235.9,282.5 240.2,285 244.5,287.5 248.9,290 249.9,290.6 254.2,293.1 258.6,295.6    262.9,298.1 267.2,300.6 271.5,303.1 275.9,305.6 280.2,308.1 284.5,310.6 284.5,310.6 284.5,310.6 284.5,310.6 284.5,310.6    288.4,308.3 292.7,305.8 297.1,303.3 301.4,300.8 305.7,298.3 310,295.8 314.4,293.3 318.7,290.8 323,288.3 327.4,285.8    331.7,283.3 336,280.8 340.4,278.3 344.7,275.8 349,273.3 353.3,270.8 357.7,268.3 357.7,267.6 357.7,262.6 357.7,262.6    357.7,262.6 357.7,259.3 357.7,254.3 357.7,249.3 357.7,244.3 357.7,239.3 357.7,234.3 357.7,229.3 357.7,224.3 357.7,219.3    357.7,214.3 357.7,209.3 357.7,204.3 357.7,199.3 357.7,194.3 357.7,189.3 357.7,184.3 357.7,179.3 357.7,174.3 357.7,169.3    357.7,164.3 357.7,164.3 357.7,164.3 357.7,164.3 356.7,163.7 352.3,161.2 348,158.7 343.7,156.2 339.3,153.7 335,151.2    330.7,148.7 326.3,146.2 322,143.7 321,143.1 316.7,140.6 312.3,138.1 308,135.6 303.7,133.1 299.3,130.6 295,128.1 290.7,125.6    286.4,123.1 285.3,122.5 281,120 276.7,117.5 272.4,115 268,112.5 263.7,110 259.4,107.5 255,105 250.7,102.5 249.7,101.9    245.4,99.4 241,96.9 236.7,94.4 232.4,91.9 228,89.4 223.7,86.9 219.4,84.4 215,81.9 214,81.3 209.7,78.8 205.4,76.3 201,73.8    196.7,71.3 192.4,68.8 188,66.3 183.7,63.8 179.4,61.3 178.4,60.8 174,58.3 169.7,55.8 165.4,53.3 161,50.8 156.7,48.3 152.4,45.8    148.1,43.3 143.7,40.8 142.7,40.2 138.4,37.7 134,35.2 129.7,32.7 125.4,30.2 121.1,27.7 116.7,25.2 112.4,22.7 108.1,20.2    103.5,17.5 99.1,15 94.8,12.5 90.5,10 86.1,7.5 81.8,5 77.5,2.5 73.1,0 69.3,2.2 65,4.7 60.6,7.2 56.3,9.7 52,12.2 47.6,14.7    43.3,17.2 39,19.7 34.6,22.2 30.3,24.7 26,27.2 21.7,29.7 17.3,32.2 13,34.7 8.7,37.2 4.3,39.7 0,42.2 0,45.6 0,50.6 0,55.6    0,60.6 0,65.6 0,70.6 0,75.6 0,80.6 0,85.6 0,90.6 0,95.6 0,100.6 0,105.6 0,110.6 0,115.6 0,120.6 0,125.6 0,130.6 0,135.6    0,140.6  "
               class="st0" />
          </g>
          <g
             transform="translate(-8.7266,-380)"
             style="opacity:0.3"
             id="g1381"
             class="st1">
            <path
               d="m 250.7,189.4 1.8,1.1 0.3,0.2 v 4 5 1 2.1 5 0.8 5 1 2.5 5 5 5 5 2.9 5 5 5 5 5 5 5 5 l -2.2,2.7 v -4.4 -5 -5 -5 -5 -5 -5 -5 -5 -2.5 -5 -5 -5 -5 -1 -3.3 -5 -2.1 -5 -5 l 0.1,-5"
               id="path1359" />
            <path
               d="m 110.2,197.8 v -5 -5 -5 -5 -1.5 -1.1 -5 -5 -5 -5 -5 -5 -5 -5 -5 -4.8 -5 -2.1 -1 -5 -4 l -0.3,-0.2 -1.8,-1.1 v 5 5 5 2.1 5 5 5 5 5 5 5 5 5 5 2.3 1.1 5 5 5 5 1.8 1.2 z"
               id="path1361" />
            <path
               d="m 181.5,239 -2.2,2.7 v -1.3 -5 -5 -5 -5 -5 -5 -5 -5 -5 -5 -5 -5 -5 -5 -5 -2.1 -5 -5 -5 l 1.8,1.1 0.3,0.2"
               id="path1363" />
            <path
               d="M 179.3,241.7"
               id="path1365" />
            <path
               d="m 36.7,65.9 1.2,0.7 1,0.6 v 3.4 5 5 5 0 2.4 5 5 5 5 5 0.2 1.9 0.3 0.6 5 2.9 2.8 5 5 5 5 5 5 l -2.2,2.7 v -4.3 -5 -5 -5 -5 -5 -5 -2.9 -0.6 -5 -0.3 -5.4 -5 -5 -5 -5 -5 -5 -5 -5 -5"
               id="path1367" />
            <path
               d="m 217.2,170.1 v 4 5 1 2.1 5 2 5 5 5 5 5 5 5 5 5 1 2.5 5 5 5 5 1.8 l -2.2,2.7 v -3.2 -2.5 -5 -5 -5 -5 -1 -4.5 -5 -5 -5 -5 -5 -5 -5 -5 -5 -2.1 -5 -5 -5 l 1.8,1.1 0.4,0.1"
               id="path1369" />
            <path
               d="m 143.7,221.1 v -2.4 -5 -5 -5 -5 -5 -5 -5 -5 -1.8 -5 -5 -5 -5 -1.1 -1.1 -5 -5 -2.1 -5 -5 -5 l 1.8,1.1 0.3,0.2"
               id="path1371" />
            <path
               d="M 72.4,179.9"
               id="path1373" />
            <path
               d="m 74.5,177.2 -2.2,2.7 v -5.4 -5 -5 -5 -5 -5 -5 -5 -5 -5 -5 -5 -5 -5 -5 -2.9 -3.3 -0.3 -1.5 -5 -5 l 0.4,0.2 0.4,0.2 1.4,0.8 v 4.2 5 0.4 0.5 1.8 0.8 4.5 2.3 5 5 5 5 5 5 5 5 5 5 5 5 5 5"
               id="path1375" />
            <path
               d="m 145.8,128.9 v 4 5 1 2.1 5 3.6 5 1.1 1.8 5 5 5 5 0.9 5 5 5 5 5 5 5 5 l -2.2,2.7"
               id="path1377" />
            <path
               d="m 181.5,149.5 v 4 5 1 2.1 5 2.3 5 5 5 5 5 5 5 5 5 5 5 5 5 5"
               id="path1379" />
          </g>
          <g
             style="opacity:0.3"
             class="st1"
             transform="matrix(0.5,0,0,0.5,-103.0901,-422.92251)"
             id="g1411">
            <g
               id="g1409">
              <path
                 d="m 395.8,139 -4.7,2.7 -8.7,5 -8.7,5 -8.7,5 -8.7,5 -8.7,5 -8.7,5 -0.6,0.3 -4.3,2.5 -5,2.9 -0.4,0.2 -8.8,5.1 -8.7,5 -8.7,5 -8.7,5 -8.7,5 -8.7,5 -2,1.2"
                 id="path1383" />
              <path
                 d="m 538.5,221.3 5.3,-6.5 -3.4,2 -8.7,5 -8.7,5 -8.7,5 -8.7,5 -8.7,5 -8.7,5 -8.7,5 -4.3,2.5 -2.7,1.6 -8.7,5 -8.7,5 -8.7,5 -8.7,5 -8.7,5 -8.7,5 -8.7,5 5.3,0.4"
                 id="path1385" />
              <path
                 d="m 609.8,262.5 -6.8,3.9 -8.7,5 -8.7,5 -8.7,5 -8.7,5 -8.7,5 -8.7,5 -4.3,2.5 -6.1,3.5 -8.7,5 -8.7,5 -8.7,5 -8.7,5 -8.7,5 -8.7,5"
                 id="path1387" />
              <path
                 d="m 681.1,303.7 5.3,-6.5 -3.4,2 -8.7,5 -8.7,5 -8.7,5 -8.7,5 -8.7,5 -8.7,5 -8.7,5 -4.3,2.5 -2.7,1.6 -8.7,5 -8.7,5 -8.7,5 -8.7,5 -8.7,5 -8.7,5 -8.7,5 5.3,0.4"
                 id="path1389" />
              <path
                 d="m 560,373.6 6.1,-3.5 8.7,-5 8.7,-5 8.7,-5 8.7,-5 8.7,-5 8.7,-5 4.3,-2.5 6.7,-3.9 8.7,-5 8.7,-5 8.7,-5 8.7,-5 8.7,-5 8.7,-5"
                 id="path1391" />
              <path
                 d="m 829,379.5 -5.3,6.5 -6.7,3.9 -8.7,5 -8.7,5 -8.7,5 -8.7,5 -8.7,5 -8.7,5 -4.3,2.5 -6.1,3.5 -8.7,5 -8.7,5 -8.7,5 -8.7,5 -8.7,5 -8.7,5 -5.3,-0.4 2.7,-1.6 8.7,-5 8.7,-5 8.7,-5 8.7,-5 8.7,-5 8.7,-5 8.7,-5 4.3,-2.5 3.4,-2 8.7,-5 8.7,-5 8.7,-5 8.7,-5 8.7,-5 8.7,-5 8.6,-4.9"
                 id="path1393" />
              <path
                 d="m 346.1,250.1 -5.3,-0.4 2.7,-1.6 8.7,-5 8.7,-5 8.7,-5 8.7,-5 8.7,-5 8.7,-5 8.7,-5 4.3,-2.5 3.4,-2 8.7,-5 8.7,-5 8.7,-5 8.7,-5 8.7,-5 8.7,-5 8.7,-5 -5.3,6.5"
                 id="path1395" />
              <path
                 d="m 752.4,344.9 -6.7,3.9 -8.7,5 -8.7,5 -8.7,5 -8.7,5 -8.7,5 -8.7,5 -4.3,2.5 -6.1,3.5 -8.7,5 -8.7,5 -8.7,5 -8.7,5 -8.7,5 -8.7,5 -5.3,-0.4 2.7,-1.6 8.7,-5 8.7,-5 8.7,-5 8.7,-5 8.7,-5 8.7,-5 8.7,-5 4.3,-2.5 3.4,-2 8.7,-5 8.7,-5 8.7,-5 8.7,-5 8.7,-5 8.7,-5 8.7,-5 -5.4,6.6"
                 id="path1397" />
              <path
                 d="m 488.7,332.4 -5.3,-0.4 2.7,-1.6 8.7,-5 8.7,-5 8.7,-5 8.7,-5 8.7,-5 8.7,-5 8.7,-5 4.3,-2.5 3.4,-2 8.7,-5 8.7,-5 8.7,-5 8.7,-5 8.7,-5 8.7,-5 8.7,-5 -5.3,6.5"
                 id="path1399" />
              <path
                 d="m 346.1,250.1 6.1,-3.5 8.7,-5 8.7,-5 8.7,-5 8.7,-5 8.7,-5 8.7,-5 4.3,-2.5 6.7,-3.9 8.7,-5 8.7,-5 8.7,-5 8.7,-5 8.7,-5 8.7,-5"
                 id="path1401" />
              <path
                 d="m 274.7,208.9 -3.7,-0.3 -1.5,-0.1 1.5,-0.9 5.8,-3.3 8.8,-5.1 8.7,-5 8.7,-5 8.7,-5 8.7,-5 8.7,-5 0.4,-0.2 5,-2.9 4.3,-2.5 0.6,-0.3 1.3,-0.8 8.7,-5 8.7,-5 8.7,-5 8.7,-5 8.7,-5 8.7,-5 8.7,-5 -5.3,6.5"
                 id="path1403" />
              <path
                 d="m 204.8,168.5 v 0 l -5.3,-0.4 1.8,-1 8.7,-5 8.7,-5 8.7,-5 8.7,-5 8.7,-5 8.7,-5 8.7,-5 8.7,-5 8.7,-5 8.7,-5 8.7,-5 8.7,-5 8.7,-5 8.7,-5 8.7,-5 -5.2,6.4 -0.1,0.1 -6.2,3.6 -8.7,5 -8.7,5 -8.7,5 -8.7,5 -8.7,5 -5.4,3.1 -3.7,2.1 -8.7,5 -8.7,5 -8.7,5 -5.4,3.1 -5.1,2.9 -8.7,5 -8.7,5 -8.9,5.1"
                 id="path1405" />
              <path
                 d="m 538.5,221.3 -6.7,3.9 -8.7,5 -8.7,5 -8.7,5 -8.7,5 -8.7,5 -8.7,5 -4.3,2.5 -6.1,3.5 -8.7,5 -8.7,5 -8.7,5 -8.7,5 -8.7,5 -8.7,5"
                 id="path1407" />
            </g>
          </g>
          <g
             style="opacity:0.2"
             class="st2"
             transform="matrix(0.5,0,0,0.5,-103.0901,-422.92251)"
             id="g1439">
            <g
               id="g1437">
              <path
                 style="fill:#ffffff"
                 d="m 409.1,481.4 0.4,0.2 7.5,4.3 8.7,5 8.7,5 8.7,5 8.7,5 8.7,5 8.7,5 v 8 l -3.6,-2.1 -8.7,-5 -8.7,-5 -8.7,-5 -8.7,-5 -8.7,-5 -8.7,-5 -8.7,-5"
                 class="st3"
                 id="path1413" />
              <path
                 style="fill:#ffffff"
                 d="m 547.4,569.2 7.6,4.4 8.7,5 8.7,5 1.8,1 2.9,1.7 8.7,5 8.7,5 8.7,5 8.7,5 v -8 l -4.7,-2.7 -8.7,-5 -8.7,-5 -8.7,-5 -1.8,-1 -1.5,-0.8 -8.7,-5 -8.7,-5 -8.7,-5 -4.3,5.4"
                 class="st3"
                 id="path1415" />
              <path
                 style="fill:#ffffff"
                 d="m 266.5,399.1 7.9,4.6 8.7,5 8.7,5 8.7,5 8.7,5 8.7,5 8.7,5 v 8 l -3.6,-2.1 -8.7,-5 -8.7,-5 -8.7,-5 -8.7,-5 -8.7,-5 -8.7,-5 -8.7,-5"
                 class="st3"
                 id="path1417" />
              <path
                 style="fill:#ffffff"
                 d="m 623,604.9 7.9,4.6 8.7,5 8.7,5 8.7,5 8.7,5 8.7,5 8.7,5 v 8 l -3.6,-2.1 -8.7,-5 -8.7,-5 -8.7,-5 -8.7,-5 -8.7,-5 -8.7,-5 -8.7,-5"
                 class="st3"
                 id="path1419" />
              <path
                 style="fill:#ffffff"
                 d="m 337.8,440.2 6.2,3.6 8.7,5 8.7,5 8.7,5 1.8,1.1 8.5,4.9 8.7,5 8.7,5 v 1.8 6.1 l -6.7,-3.9 -8.7,-5 -8.7,-5 -8.7,-5 -1.8,-1.1 -3.7,-2.1 -8.7,-5 -8.7,-5 -8.7,-5"
                 class="st3"
                 id="path1421" />
              <path
                 style="fill:#ffffff"
                 d="m 337.8,440.2 -4.3,5.5"
                 class="st3"
                 id="path1423" />
              <path
                 style="fill:#ffffff"
                 d="m 540.3,557.1 -7.9,-4.6 -8.7,-5 -8.7,-5 -8.7,-5 -8.7,-5 -8.7,-5 -8.7,-5 -4.3,5.5 8.7,5 8.7,5 8.7,5 8.7,5 8.7,5 8.7,5 8.7,5 3.6,2.1"
                 class="st3"
                 id="path1425" />
              <path
                 style="fill:#ffffff"
                 d="m 746.3,676.1 -8.7,-5 -8.7,-5 -8.7,-5 -8.7,-5 -8.7,-5 -8.7,-5 -4.3,5.5 8.7,5 8.7,5 8.7,5 8.7,5 8.7,5 8.7,5 8.7,5 3.6,2.1 v -8"
                 class="st3"
                 id="path1427" />
              <path
                 style="fill:#ffffff"
                 d="m 404.8,486.9 3.6,-4.6 0.7,-0.9"
                 class="st3"
                 id="path1429" />
              <path
                 style="fill:#ffffff"
                 d="m 618.7,610.4 4.3,-5.5"
                 class="st3"
                 id="path1431" />
              <path
                 style="fill:#ffffff"
                 d="m 262.1,404.5 4.3,-5.5"
                 class="st3"
                 id="path1433" />
              <path
                 style="fill:#ffffff"
                 d="m 192.3,364.2 1.9,1.1 8.7,5 8.9,5.1 8.7,5 8.7,5 8.7,5 8.7,5 8.7,5 v -8 0 l -2,-1.2 -8.7,-5 -8.7,-5 -8.7,-5 -8.7,-5 -8.7,-5 -4.4,-2.6 -8.7,-5 z"
                 class="st3"
                 id="path1435" />
            </g>
          </g>
          <g
             style="opacity:0.3"
             class="st1"
             transform="matrix(0.5,0,0,0.5,-103.0901,-422.92251)"
             id="g1447">
            <g
               id="g1445">
              <path
                 d="m 192.3,177.3 v 6.9 10 10 10 10 10 10 10 10 10 10 10 10 10 10 10 10 10 10 0 l 4.3,-5.5 v -0.5 -1.5 -0.5 -1.5 -4.9 -10 -10 -10 -10 -10 -10 -10 -10 -10 -10 -10 -10 -10 -10 -10 -10 -10 z"
                 id="path1441" />
              <path
                 d="M 196.6,358.7"
                 id="path1443" />
            </g>
          </g>
          <polygon
             transform="translate(-8.7266,-380)"
             id="polygon1449"
             points="185.6,253.4 188.9,251.5 188,251 " />
          <path
             d="m 72.3734,-186.9 3,-1.7 -0.9,-0.5"
             id="path1451" />
          <path
             style="opacity:0.3;fill:#ffffff"
             id="path1453"
             d="m 348.9734,-215.7 -73.1,42.2 -284.6,-164.3 73.1,-42.2 z m -5.5,1.1 -281,-162.3 -65.8,38 281,162.2 z"
             class="st4" />
          <g
             style="opacity:0.3"
             class="st1"
             transform="matrix(0.5,0,0,0.5,-103.0901,-422.92251)"
             id="g1475">
            <g
               id="g1473">
              <path
                 style="fill:#ffffff"
                 d="m 457,174.3 -5.3,-3 -8.7,-5 -8.7,-5 -8.7,-5 -8.7,-5 -8.7,-5 -4.3,-2.5 -8.3,-4.8 -4.7,2.7 -8.7,5 -8.7,5 -8.7,5 -8.7,5 -8.7,5 -8.7,5 -0.6,0.3 -4.3,2.5 -5,2.9 -0.4,0.2 -8.8,5.1 -8.7,5 -8.7,5 -8.7,5 -8.7,5 -8.7,5 -2,1.2 2,1.2 0.7,0.4 8.7,5 8.7,5 8.7,5 8.7,5 0.1,0.1 8,4.6 8.7,5 0.4,0.2 5,2.9 1.7,1 z"
                 class="st3"
                 id="path1455" />
              <path
                 style="fill:#ffffff"
                 d="m 670.9,297.8 -5.3,-3 -8.7,-5 -8.7,-5 -8.7,-5 -8.7,-5 -8.7,-5 -4.3,-2.5 -8.3,-4.8 -6.8,3.9 -8.7,5 -8.7,5 -8.7,5 -8.7,5 -8.7,5 -8.7,5 -4.3,2.5 -6.1,3.5 -8.7,5 -8.7,5 -8.7,5 -8.7,5 -8.7,5 -8.7,5 6.1,3.5 8.7,5 8.7,5 8.7,5 8.7,5 8.7,5 8.7,5 3.1,1.8 z"
                 class="st3"
                 id="path1457" />
              <path
                 style="fill:#ffffff"
                 d="M 752.4,344.9"
                 class="st3"
                 id="path1459" />
              <path
                 style="fill:#ffffff"
                 d="m 692.5,450.1 -3.1,-1.8 -6.1,-3.5 -8.7,-5 -8.7,-5 -8.7,-5 -8.7,-5 -8.7,-5 -8.7,-5 8.7,-5 8.7,-5 8.7,-5 8.7,-5 8.7,-5 8.7,-5 6.1,-3.5 4.3,-2.5 8.7,-5 8.7,-5 8.7,-5 8.7,-5 8.7,-5 8.7,-5 6.7,-3.9 8.3,4.8 4.3,2.5 8.7,5 8.7,5 8.7,5 8.7,5 8.7,5 5.3,3 z"
                 class="st3"
                 id="path1461" />
              <path
                 style="fill:#ffffff"
                 d="m 407.2,285.4 -3.1,-1.8 -6.1,-3.5 -8.7,-5 -8.7,-5 -8.7,-5 -8.7,-5 -8.7,-5 -8.7,-5 6.1,-3.5 8.7,-5 8.7,-5 8.7,-5 8.7,-5 8.7,-5 8.7,-5 4.3,-2.5 6.7,-3.9 8.7,-5 8.7,-5 8.7,-5 8.7,-5 8.7,-5 8.7,-5 8.3,4.8 4.3,2.5 5.3,3 8.7,5 8.7,5 8.7,5 8.7,5 8.7,5 z"
                 class="st3"
                 id="path1463" />
              <path
                 style="fill:#ffffff"
                 d="m 884.9,421.3 -0.1,-0.1 -5.1,-3 -8.7,-5 -8.7,-5 -8.7,-5 -8.7,-5 -8.7,-5 -4.3,-2.5 -8.3,-4.8 -121.1,69.9 8.7,5 8.7,5 8.7,5 8.7,5 8.7,5 8.7,5 6.1,3.5 3,1.7 0.1,0.1 z"
                 class="st3"
                 id="path1465" />
              <path
                 style="fill:#ffffff"
                 d="m 599.6,256.7 -5.3,-3 -8.7,-5 -8.7,-5 -8.7,-5 -8.7,-5 -8.7,-5 -4.3,-2.5 -8.3,-4.8 -6.7,3.9 -8.7,5 -8.7,5 -8.7,5 -8.7,5 -8.7,5 -8.7,5 -4.3,2.5 -6.1,3.5 -8.7,5 -8.7,5 -8.7,5 -8.7,5 -8.7,5 -8.7,5 v 0 l 6.1,3.5 8.7,5 8.7,5 8.7,5 8.7,5 8.7,5 8.7,5 3.1,1.8 z"
                 class="st3"
                 id="path1467" />
              <path
                 style="fill:#ffffff"
                 d="m 385.8,133.2 -3.3,-1.9 -8.7,-5 -8.7,-5 -8.7,-5 -8.7,-5 -8.7,-5 -0.6,-0.3 -4.3,-2.5 -5,-2.9 -0.4,-0.2 -1.2,-0.7 -1.8,-1 0.1,-0.1 -0.1,0.1 -6.2,3.6 -8.7,5 -8.7,5 -8.7,5 -8.7,5 -8.7,5 -5.4,3.1 -3.7,2.1 -8.7,5 -8.7,5 -8.7,5 -5.4,3.1 -5.1,2.9 -8.7,5 -8.7,5 -8.7,5 h -0.1 0.1 l 1.8,1 8.7,5 8.7,5 8.7,5 3.3,1.9 5.8,3.3 7.6,4.4 0.9,0.5 8.7,5 5.9,3.4 -0.2,0.1 z"
                 class="st3"
                 id="path1469" />
              <path
                 style="fill:#ffffff"
                 d="m 742.3,339 -5.3,3 -8.7,5 -8.7,5 -8.7,5 -8.7,5 -8.7,5 -4.3,2.5 -2.8,1.6 -4.3,2.5 -7.9,4.6 -8.7,5 -8.7,5 -8.7,5 -8.7,5 -8.7,5 -8.7,5 -1.2,0.7 -60.8,-35.3 6.1,-3.5 8.7,-5 8.7,-5 8.7,-5 8.7,-5 8.7,-5 8.7,-5 4.3,-2.5 6.7,-3.9 8.7,-5 8.7,-5 8.7,-5 8.7,-5 8.7,-5 8.7,-5 z"
                 class="st3"
                 id="path1471" />
            </g>
          </g>
          <polygon
             transform="translate(-8.7266,-380)"
             style="opacity:0.3;fill:#ffffff"
             id="polygon1477"
             points="36.8,59.3 102.7,21.3 106.2,23.3 40.4,61.3 "
             class="st4" />
          <polygon
             transform="translate(-8.7266,-380)"
             style="opacity:0.3;fill:#ffffff"
             id="polygon1479"
             points="72.5,79.8 138.3,41.8 141.9,43.9 76,81.9 "
             class="st4" />
          <polygon
             transform="translate(-8.7266,-380)"
             style="opacity:0.3;fill:#ffffff"
             id="polygon1481"
             points="108.1,100.4 173.9,62.4 177.5,64.5 111.7,102.5 "
             class="st4" />
          <polygon
             transform="translate(-8.7266,-380)"
             style="opacity:0.3;fill:#ffffff"
             id="polygon1483"
             points="143.8,121 209.6,83 213.2,85.1 147.3,123.1 "
             class="st4" />
          <polygon
             transform="translate(-8.7266,-380)"
             style="opacity:0.3;fill:#ffffff"
             id="polygon1485"
             points="179.4,141.6 245.3,103.6 248.8,105.7 183,143.7 "
             class="st4" />
          <polygon
             transform="translate(-8.7266,-380)"
             style="opacity:0.3;fill:#ffffff"
             id="polygon1487"
             points="215.1,162.2 280.9,124.2 284.5,126.2 218.7,164.2 "
             class="st4" />
          <polygon
             transform="translate(-8.7266,-380)"
             style="opacity:0.3;fill:#ffffff"
             id="polygon1489"
             points="250.7,182.8 316.6,144.8 320.1,146.8 254.3,184.8 "
             class="st4" />
          <polygon
             transform="translate(-8.7266,-380)"
             style="opacity:0.3;fill:#ffffff"
             id="polygon1491"
             points="287.6,208.5 354,170.2 354.6,170.6 288.3,208.9 "
             class="st4" />
          <path
             style="opacity:0.3"
             id="path1493"
             d="m 348.9734,-117.4 v 5 0.7 l -4.3,2.5 -4.3,2.5 -4.3,2.5 -4.3,2.5 -4.3,2.5 -4.3,2.5 -4.3,2.5 -4.3,2.5 -4.3,2.5 -4.3,2.5 -4.3,2.5 -4.3,2.5 -4.3,2.5 -4.3,2.5 -4.3,2.5 -4.3,2.5 -3.9,2.2 v -0.7 -5 m 72.7,-42.2 v -3.4 -5 -5 -5 -5 -5 -5 -5 -5 -5 -5 -5 -5 -5 -5 -5 -5 -5 -5 -5 0 0 0 0 l -2,1.2 -4.3,2.5 -1.8,1.1 -4,2.3 -4.3,2.5 -4.3,2.5 -4.3,2.5 -4.3,2.5 -4.3,2.5 -2.2,1.2 -3.2,1.8 -4.3,2.5 -4.3,2.5 -4.3,2.5 -4.3,2.5 -4.3,2.5 -4.3,2.5 -4.3,2.5 -2.2,1.2 -1.5,0.8 v 1.5 5 5 0 3.1 5 2.1 5 5 5 5 5 5 5 5 5 5 5 5 5 5 0.9 0.7 5 m 72.8,-42 z m -37.9,-46.2 -3,-1.2 v -21.4 l 3,-1.7 z m 0,36.2 -3,-1.6 v -29.7 l 3,-1.7 z m 0,27.5 -3,-1.2 v -21.3 l 3,-1.7 z m 33.2,-19.2 -3,-1.2 v -21.3 l 3,-1.7 z m 0,-27.4 -3,-1.6 v -29.7 l 3,-1.7 z m 0,-36.3 -3,-1.2 v -21.4 l 3,-1.7 z m -65.4,11.3 v 0 l 0.6,0.2 0.2,0.1 v 1.3 5 5 1 2.1 5 2.7 5 1.7 5 5 5 5 5 5 5 0.9 5 5 5 5 5 1 0 l -0.7,-0.4 v -0.1 -5 -1.2 -5 -5 -5 -5 -5 -5 -5 -5 -5 -5 -5 -5 -5 -0.7 -5 -1.5 -0.6 -1.5 -5 -5 m 66.9,-37.9 -66.3,38.3 -0.6,-0.4 66.3,-38.3 z m -34.8,45.8 -29.8,17.2 v -2.9 l 26.9,-15.5 z m 0,36.2 -29.8,17.3 v -3.4 l 26.9,-15.5 z m 0,27.5 -29.8,17.2 v -2.9 l 26.9,-15.5 z m 33.2,-82.9 -29.8,17.2 v -2.9 l 26.8,-15.5 z m 0,36.3 -29.8,17.2 v -3.4 l 26.9,-15.5 z m 0,27.4 -29.8,17.2 v -2.9 l 26.9,-15.5 z"
             class="st1" />
          <polygon
             transform="translate(-8.7266,-380)"
             style="opacity:0.3;fill:#ffffff"
             id="polygon1495"
             points="290,230.7 316.8,215.2 319.8,216.4 290,233.6 "
             class="st4" />
          <polygon
             transform="translate(-8.7266,-380)"
             style="opacity:0.3;fill:#ffffff"
             id="polygon1497"
             points="290,266.5 316.8,251 319.8,252.6 290,269.9 "
             class="st4" />
          <polygon
             transform="translate(-8.7266,-380)"
             style="opacity:0.3;fill:#ffffff"
             id="polygon1499"
             points="290,294.4 316.8,278.9 319.8,280.1 290,297.3 "
             class="st4" />
          <polygon
             transform="translate(-8.7266,-380)"
             style="opacity:0.3;fill:#ffffff"
             id="polygon1501"
             points="323.1,211.5 350,196 353,197.2 323.1,214.5 "
             class="st4" />
          <polygon
             transform="translate(-8.7266,-380)"
             style="opacity:0.3;fill:#ffffff"
             id="polygon1503"
             points="323.1,247.4 350,231.8 353,233.5 323.1,250.7 "
             class="st4" />
          <polygon
             transform="translate(-8.7266,-380)"
             style="opacity:0.3;fill:#ffffff"
             id="polygon1505"
             points="323.1,275.2 350,259.7 353,260.9 323.1,278.1 "
             class="st4" />
          <polygon
             transform="translate(-8.7266,-380)"
             style="fill:#808080"
             id="polygon1507"
             points="330.9,262.9 330.9,267.9 330.9,269 330.9,270.7 330.9,273.6 330.9,273.9 330.9,274.2 331.1,274.6 331.3,274.7 331.3,274.8 331.4,274.8 331.8,275 332.4,275.1 332.9,275 333.4,274.8 333.7,274.6 333.8,274.2 333.8,273.3 333.8,205.4 333.8,203.4 333.8,198.4 333.8,193.4 333.8,188.4 333.7,188.1 333.4,187.8 332.9,187.6 332.4,187.6 331.8,187.6 331.4,187.8 331.1,188.1 330.9,188.4 330.9,193.4 330.9,198.4 330.9,203.4 330.9,207 330.9,209.9 330.9,210.4 330.6,210.2 330.6,210.1 330.2,210.4 329.8,210.6 329.8,213.7 329.8,213.8 330.9,214.5 330.9,214.8 330.9,219.8 330.9,224.8 330.9,229.8 330.9,234.8 330.9,239.8 330.9,242.8 330.9,244.8 330.9,245.8 330.9,246.2 330.9,246.6 330.6,246.4 330.2,246.6 330,246.7 329.8,246.8 329.8,246.9 329.8,249.5 329.8,250 330.9,250.7 330.9,251 330.9,252.9 330.9,257.9 "
             class="st5" />
          <polygon
             transform="translate(-8.7266,-380)"
             style="fill:#808080"
             id="polygon1509"
             points="313.4,229.6 313.4,234.6 313.4,235.6 313.4,237.1 313.4,237.8 313.4,242.8 313.4,243 313.4,248 313.4,253 313.4,256.3 313.4,256.7 313.1,256.5 313,256.5 312.6,256.7 312.3,256.9 312.3,257 312.3,259.7 312.3,260.2 313.4,260.9 313.4,261.2 313.4,264.1 313.4,269.1 313.4,274.1 313.4,279.1 313.4,280.8 313.4,283.7 313.4,284.1 313.4,284.4 313.5,284.7 313.7,284.9 313.8,284.9 313.8,285 314.3,285.1 314.8,285.2 315.4,285.1 315.9,285 316.2,284.7 316.3,284.4 316.3,283.4 316.3,282.4 316.3,282.1 316.3,279.2 316.3,277.5 316.3,276.2 316.3,271.2 316.3,266.2 316.3,261.2 316.3,258 316.3,257.8 316.3,257.3 316.3,254.7 316.3,251.3 316.3,249.4 316.3,244.4 316.3,243.8 316.3,238.8 316.3,237.3 316.3,236.3 316.3,235 316.3,230 316.3,225 316.3,221.8 316.3,221.6 316.3,221.5 316.3,218.4 316.3,215.5 316.3,213.5 316.3,208.5 316.3,203.5 316.3,198.5 316.2,198.2 315.9,197.9 315.4,197.8 314.8,197.7 314.3,197.8 313.8,197.9 313.5,198.2 313.4,198.5 313.4,202.1 313.4,207.1 313.4,212.1 313.4,220.1 313.4,220.5 313,220.3 312.6,220.5 312.3,220.8 312.3,223.9 313.4,224.6 313.4,225 "
             class="st5" />
          <path
             style="opacity:0.3;fill:#ffffff"
             d="m 322.1734,-191.6 0.1,0.3 0.3,0.3 0.5,0.2 0.6,0.1 0.6,-0.1 0.5,-0.2 0.3,-0.3 0.1,-0.3 -0.1,-0.3 -0.3,-0.3 -0.5,-0.2 -0.6,-0.1 -0.6,0.1 -0.5,0.2 -0.3,0.3 z"
             class="st4"
             id="path1511" />
          <path
             style="opacity:0.3;fill:#ffffff"
             d="m 304.6734,-181.5 0.1,-0.3 0.3,-0.3 0.5,-0.2 0.6,-0.1 0.6,0.1 0.5,0.2 0.3,0.3 0.1,0.3 -0.1,0.3 -0.3,0.3 -0.5,0.2 -0.6,0.1 -0.6,-0.1 -0.5,-0.2 -0.3,-0.3 z"
             class="st4"
             id="path1513" />
          <path
             style="opacity:0.3;fill:#ffffff"
             d="m 303.5734,-159.2 0.8,0.5 0.4,0.2 v -0.9 l -0.4,-0.2 -0.4,0.2 -0.4,0.2"
             class="st4"
             id="path1515" />
          <path
             style="opacity:0.3;fill:#ffffff"
             d="m 321.0734,-133.2 0.2,-0.1 0.2,-0.1 0.4,-0.2 v 0 l 0.3,0.2 v 0.6 0.3 l -0.4,-0.2 -0.7,-0.5"
             class="st4"
             id="path1517" />
          <path
             style="opacity:0.3;fill:#ffffff"
             d="m 321.0734,-169.4 0.8,0.4 0.4,0.2 v -0.9 l -0.4,-0.2 z"
             class="st4"
             id="path1519" />
          <path
             style="opacity:0.3;fill:#ffffff"
             d="m 304.6734,-122.4 v -0.9 l -0.3,-0.2 v 0 0 l -0.4,0.2 -0.4,0.2"
             class="st4"
             id="path1521" />
        </g>
        <g
           id="g1693"
           transform="translate(1155.5602,402.84733)"
           style="filter:url(#filter1741)">
          <g
             transform="translate(-8.7266,-380)"
             id="g1527">
            <polyline
               style="fill:#914b2d"
               id="polyline1525"
               points="0,140.6 0,141.3 0,146.3 4.6,148.9 8.9,151.4 13.3,153.9 17.6,156.4 21.9,158.9 26.3,161.4    30.6,163.9 34.9,166.4 37.8,168.1 42.1,170.6 46.4,173.1 50.7,175.6 55.1,178.1 59.4,180.6 63.7,183.1 68.1,185.6 72.4,188.1    76.7,190.6 81.1,193.1 83.2,190.8 84.1,191.3 84.8,191.7 89.1,194.2 93.5,196.7 97.8,199.2 97.9,199.4 99.9,204 102.9,205.7    107.3,208.2 111.6,210.7 115.9,213.2 120.2,215.7 124.6,218.2 128.9,220.7 133.2,223.2 137.6,225.7 141.9,228.2 146.7,230.9    151,233.4 155.3,235.9 159.6,238.4 164,240.9 168.3,243.4 172.6,245.9 177,248.4 181.3,250.9 185.6,253.4 185.6,253.4 185.6,253.4    188.9,251.5 188.9,251.5 188.9,251.5 189.7,252 194.1,254.5 198.4,257 202.7,259.5 203,260.2 205.1,264.7 209.9,267.5 214.2,270    218.6,272.5 222.9,275 227.2,277.5 231.6,280 235.9,282.5 240.2,285 244.5,287.5 248.9,290 249.9,290.6 254.2,293.1 258.6,295.6    262.9,298.1 267.2,300.6 271.5,303.1 275.9,305.6 280.2,308.1 284.5,310.6 284.5,310.6 284.5,310.6 284.5,310.6 284.5,310.6    288.4,308.3 292.7,305.8 297.1,303.3 301.4,300.8 305.7,298.3 310,295.8 314.4,293.3 318.7,290.8 323,288.3 327.4,285.8    331.7,283.3 336,280.8 340.4,278.3 344.7,275.8 349,273.3 353.3,270.8 357.7,268.3 357.7,267.6 357.7,262.6 357.7,262.6    357.7,262.6 357.7,259.3 357.7,254.3 357.7,249.3 357.7,244.3 357.7,239.3 357.7,234.3 357.7,229.3 357.7,224.3 357.7,219.3    357.7,214.3 357.7,209.3 357.7,204.3 357.7,199.3 357.7,194.3 357.7,189.3 357.7,184.3 357.7,179.3 357.7,174.3 357.7,169.3    357.7,164.3 357.7,164.3 357.7,164.3 357.7,164.3 356.7,163.7 352.3,161.2 348,158.7 343.7,156.2 339.3,153.7 335,151.2    330.7,148.7 326.3,146.2 322,143.7 321,143.1 316.7,140.6 312.3,138.1 308,135.6 303.7,133.1 299.3,130.6 295,128.1 290.7,125.6    286.4,123.1 285.3,122.5 281,120 276.7,117.5 272.4,115 268,112.5 263.7,110 259.4,107.5 255,105 250.7,102.5 249.7,101.9    245.4,99.4 241,96.9 236.7,94.4 232.4,91.9 228,89.4 223.7,86.9 219.4,84.4 215,81.9 214,81.3 209.7,78.8 205.4,76.3 201,73.8    196.7,71.3 192.4,68.8 188,66.3 183.7,63.8 179.4,61.3 178.4,60.8 174,58.3 169.7,55.8 165.4,53.3 161,50.8 156.7,48.3 152.4,45.8    148.1,43.3 143.7,40.8 142.7,40.2 138.4,37.7 134,35.2 129.7,32.7 125.4,30.2 121.1,27.7 116.7,25.2 112.4,22.7 108.1,20.2    103.5,17.5 99.1,15 94.8,12.5 90.5,10 86.1,7.5 81.8,5 77.5,2.5 73.1,0 69.3,2.2 65,4.7 60.6,7.2 56.3,9.7 52,12.2 47.6,14.7    43.3,17.2 39,19.7 34.6,22.2 30.3,24.7 26,27.2 21.7,29.7 17.3,32.2 13,34.7 8.7,37.2 4.3,39.7 0,42.2 0,45.6 0,50.6 0,55.6    0,60.6 0,65.6 0,70.6 0,75.6 0,80.6 0,85.6 0,90.6 0,95.6 0,100.6 0,105.6 0,110.6 0,115.6 0,120.6 0,125.6 0,130.6 0,135.6    0,140.6  "
               class="st0" />
          </g>
          <g
             transform="translate(-8.7266,-380)"
             style="opacity:0.3"
             id="g1551"
             class="st1">
            <path
               d="m 250.7,189.4 1.8,1.1 0.3,0.2 v 4 5 1 2.1 5 0.8 5 1 2.5 5 5 5 5 2.9 5 5 5 5 5 5 5 5 l -2.2,2.7 v -4.4 -5 -5 -5 -5 -5 -5 -5 -5 -2.5 -5 -5 -5 -5 -1 -3.3 -5 -2.1 -5 -5 l 0.1,-5"
               id="path1529" />
            <path
               d="m 110.2,197.8 v -5 -5 -5 -5 -1.5 -1.1 -5 -5 -5 -5 -5 -5 -5 -5 -5 -4.8 -5 -2.1 -1 -5 -4 l -0.3,-0.2 -1.8,-1.1 v 5 5 5 2.1 5 5 5 5 5 5 5 5 5 5 2.3 1.1 5 5 5 5 1.8 1.2 z"
               id="path1531" />
            <path
               d="m 181.5,239 -2.2,2.7 v -1.3 -5 -5 -5 -5 -5 -5 -5 -5 -5 -5 -5 -5 -5 -5 -5 -2.1 -5 -5 -5 l 1.8,1.1 0.3,0.2"
               id="path1533" />
            <path
               d="M 179.3,241.7"
               id="path1535" />
            <path
               d="m 36.7,65.9 1.2,0.7 1,0.6 v 3.4 5 5 5 0 2.4 5 5 5 5 5 0.2 1.9 0.3 0.6 5 2.9 2.8 5 5 5 5 5 5 l -2.2,2.7 v -4.3 -5 -5 -5 -5 -5 -5 -2.9 -0.6 -5 -0.3 -5.4 -5 -5 -5 -5 -5 -5 -5 -5 -5"
               id="path1537" />
            <path
               d="m 217.2,170.1 v 4 5 1 2.1 5 2 5 5 5 5 5 5 5 5 5 1 2.5 5 5 5 5 1.8 l -2.2,2.7 v -3.2 -2.5 -5 -5 -5 -5 -1 -4.5 -5 -5 -5 -5 -5 -5 -5 -5 -5 -2.1 -5 -5 -5 l 1.8,1.1 0.4,0.1"
               id="path1539" />
            <path
               d="m 143.7,221.1 v -2.4 -5 -5 -5 -5 -5 -5 -5 -5 -1.8 -5 -5 -5 -5 -1.1 -1.1 -5 -5 -2.1 -5 -5 -5 l 1.8,1.1 0.3,0.2"
               id="path1541" />
            <path
               d="M 72.4,179.9"
               id="path1543" />
            <path
               d="m 74.5,177.2 -2.2,2.7 v -5.4 -5 -5 -5 -5 -5 -5 -5 -5 -5 -5 -5 -5 -5 -5 -2.9 -3.3 -0.3 -1.5 -5 -5 l 0.4,0.2 0.4,0.2 1.4,0.8 v 4.2 5 0.4 0.5 1.8 0.8 4.5 2.3 5 5 5 5 5 5 5 5 5 5 5 5 5 5"
               id="path1545" />
            <path
               d="m 145.8,128.9 v 4 5 1 2.1 5 3.6 5 1.1 1.8 5 5 5 5 0.9 5 5 5 5 5 5 5 5 l -2.2,2.7"
               id="path1547" />
            <path
               d="m 181.5,149.5 v 4 5 1 2.1 5 2.3 5 5 5 5 5 5 5 5 5 5 5 5 5 5"
               id="path1549" />
          </g>
          <g
             style="opacity:0.3"
             class="st1"
             transform="matrix(0.5,0,0,0.5,-103.0901,-422.92251)"
             id="g1581">
            <g
               id="g1579">
              <path
                 d="m 395.8,139 -4.7,2.7 -8.7,5 -8.7,5 -8.7,5 -8.7,5 -8.7,5 -8.7,5 -0.6,0.3 -4.3,2.5 -5,2.9 -0.4,0.2 -8.8,5.1 -8.7,5 -8.7,5 -8.7,5 -8.7,5 -8.7,5 -2,1.2"
                 id="path1553" />
              <path
                 d="m 538.5,221.3 5.3,-6.5 -3.4,2 -8.7,5 -8.7,5 -8.7,5 -8.7,5 -8.7,5 -8.7,5 -8.7,5 -4.3,2.5 -2.7,1.6 -8.7,5 -8.7,5 -8.7,5 -8.7,5 -8.7,5 -8.7,5 -8.7,5 5.3,0.4"
                 id="path1555" />
              <path
                 d="m 609.8,262.5 -6.8,3.9 -8.7,5 -8.7,5 -8.7,5 -8.7,5 -8.7,5 -8.7,5 -4.3,2.5 -6.1,3.5 -8.7,5 -8.7,5 -8.7,5 -8.7,5 -8.7,5 -8.7,5"
                 id="path1557" />
              <path
                 d="m 681.1,303.7 5.3,-6.5 -3.4,2 -8.7,5 -8.7,5 -8.7,5 -8.7,5 -8.7,5 -8.7,5 -8.7,5 -4.3,2.5 -2.7,1.6 -8.7,5 -8.7,5 -8.7,5 -8.7,5 -8.7,5 -8.7,5 -8.7,5 5.3,0.4"
                 id="path1559" />
              <path
                 d="m 560,373.6 6.1,-3.5 8.7,-5 8.7,-5 8.7,-5 8.7,-5 8.7,-5 8.7,-5 4.3,-2.5 6.7,-3.9 8.7,-5 8.7,-5 8.7,-5 8.7,-5 8.7,-5 8.7,-5"
                 id="path1561" />
              <path
                 d="m 829,379.5 -5.3,6.5 -6.7,3.9 -8.7,5 -8.7,5 -8.7,5 -8.7,5 -8.7,5 -8.7,5 -4.3,2.5 -6.1,3.5 -8.7,5 -8.7,5 -8.7,5 -8.7,5 -8.7,5 -8.7,5 -5.3,-0.4 2.7,-1.6 8.7,-5 8.7,-5 8.7,-5 8.7,-5 8.7,-5 8.7,-5 8.7,-5 4.3,-2.5 3.4,-2 8.7,-5 8.7,-5 8.7,-5 8.7,-5 8.7,-5 8.7,-5 8.6,-4.9"
                 id="path1563" />
              <path
                 d="m 346.1,250.1 -5.3,-0.4 2.7,-1.6 8.7,-5 8.7,-5 8.7,-5 8.7,-5 8.7,-5 8.7,-5 8.7,-5 4.3,-2.5 3.4,-2 8.7,-5 8.7,-5 8.7,-5 8.7,-5 8.7,-5 8.7,-5 8.7,-5 -5.3,6.5"
                 id="path1565" />
              <path
                 d="m 752.4,344.9 -6.7,3.9 -8.7,5 -8.7,5 -8.7,5 -8.7,5 -8.7,5 -8.7,5 -4.3,2.5 -6.1,3.5 -8.7,5 -8.7,5 -8.7,5 -8.7,5 -8.7,5 -8.7,5 -5.3,-0.4 2.7,-1.6 8.7,-5 8.7,-5 8.7,-5 8.7,-5 8.7,-5 8.7,-5 8.7,-5 4.3,-2.5 3.4,-2 8.7,-5 8.7,-5 8.7,-5 8.7,-5 8.7,-5 8.7,-5 8.7,-5 -5.4,6.6"
                 id="path1567" />
              <path
                 d="m 488.7,332.4 -5.3,-0.4 2.7,-1.6 8.7,-5 8.7,-5 8.7,-5 8.7,-5 8.7,-5 8.7,-5 8.7,-5 4.3,-2.5 3.4,-2 8.7,-5 8.7,-5 8.7,-5 8.7,-5 8.7,-5 8.7,-5 8.7,-5 -5.3,6.5"
                 id="path1569" />
              <path
                 d="m 346.1,250.1 6.1,-3.5 8.7,-5 8.7,-5 8.7,-5 8.7,-5 8.7,-5 8.7,-5 4.3,-2.5 6.7,-3.9 8.7,-5 8.7,-5 8.7,-5 8.7,-5 8.7,-5 8.7,-5"
                 id="path1571" />
              <path
                 d="m 274.7,208.9 -3.7,-0.3 -1.5,-0.1 1.5,-0.9 5.8,-3.3 8.8,-5.1 8.7,-5 8.7,-5 8.7,-5 8.7,-5 8.7,-5 0.4,-0.2 5,-2.9 4.3,-2.5 0.6,-0.3 1.3,-0.8 8.7,-5 8.7,-5 8.7,-5 8.7,-5 8.7,-5 8.7,-5 8.7,-5 -5.3,6.5"
                 id="path1573" />
              <path
                 d="m 204.8,168.5 v 0 l -5.3,-0.4 1.8,-1 8.7,-5 8.7,-5 8.7,-5 8.7,-5 8.7,-5 8.7,-5 8.7,-5 8.7,-5 8.7,-5 8.7,-5 8.7,-5 8.7,-5 8.7,-5 8.7,-5 8.7,-5 -5.2,6.4 -0.1,0.1 -6.2,3.6 -8.7,5 -8.7,5 -8.7,5 -8.7,5 -8.7,5 -5.4,3.1 -3.7,2.1 -8.7,5 -8.7,5 -8.7,5 -5.4,3.1 -5.1,2.9 -8.7,5 -8.7,5 -8.9,5.1"
                 id="path1575" />
              <path
                 d="m 538.5,221.3 -6.7,3.9 -8.7,5 -8.7,5 -8.7,5 -8.7,5 -8.7,5 -8.7,5 -4.3,2.5 -6.1,3.5 -8.7,5 -8.7,5 -8.7,5 -8.7,5 -8.7,5 -8.7,5"
                 id="path1577" />
            </g>
          </g>
          <g
             style="opacity:0.2"
             class="st2"
             transform="matrix(0.5,0,0,0.5,-103.0901,-422.92251)"
             id="g1609">
            <g
               id="g1607">
              <path
                 style="fill:#ffffff"
                 d="m 409.1,481.4 0.4,0.2 7.5,4.3 8.7,5 8.7,5 8.7,5 8.7,5 8.7,5 8.7,5 v 8 l -3.6,-2.1 -8.7,-5 -8.7,-5 -8.7,-5 -8.7,-5 -8.7,-5 -8.7,-5 -8.7,-5"
                 class="st3"
                 id="path1583" />
              <path
                 style="fill:#ffffff"
                 d="m 547.4,569.2 7.6,4.4 8.7,5 8.7,5 1.8,1 2.9,1.7 8.7,5 8.7,5 8.7,5 8.7,5 v -8 l -4.7,-2.7 -8.7,-5 -8.7,-5 -8.7,-5 -1.8,-1 -1.5,-0.8 -8.7,-5 -8.7,-5 -8.7,-5 -4.3,5.4"
                 class="st3"
                 id="path1585" />
              <path
                 style="fill:#ffffff"
                 d="m 266.5,399.1 7.9,4.6 8.7,5 8.7,5 8.7,5 8.7,5 8.7,5 8.7,5 v 8 l -3.6,-2.1 -8.7,-5 -8.7,-5 -8.7,-5 -8.7,-5 -8.7,-5 -8.7,-5 -8.7,-5"
                 class="st3"
                 id="path1587" />
              <path
                 style="fill:#ffffff"
                 d="m 623,604.9 7.9,4.6 8.7,5 8.7,5 8.7,5 8.7,5 8.7,5 8.7,5 v 8 l -3.6,-2.1 -8.7,-5 -8.7,-5 -8.7,-5 -8.7,-5 -8.7,-5 -8.7,-5 -8.7,-5"
                 class="st3"
                 id="path1589" />
              <path
                 style="fill:#ffffff"
                 d="m 337.8,440.2 6.2,3.6 8.7,5 8.7,5 8.7,5 1.8,1.1 8.5,4.9 8.7,5 8.7,5 v 1.8 6.1 l -6.7,-3.9 -8.7,-5 -8.7,-5 -8.7,-5 -1.8,-1.1 -3.7,-2.1 -8.7,-5 -8.7,-5 -8.7,-5"
                 class="st3"
                 id="path1591" />
              <path
                 style="fill:#ffffff"
                 d="m 337.8,440.2 -4.3,5.5"
                 class="st3"
                 id="path1593" />
              <path
                 style="fill:#ffffff"
                 d="m 540.3,557.1 -7.9,-4.6 -8.7,-5 -8.7,-5 -8.7,-5 -8.7,-5 -8.7,-5 -8.7,-5 -4.3,5.5 8.7,5 8.7,5 8.7,5 8.7,5 8.7,5 8.7,5 8.7,5 3.6,2.1"
                 class="st3"
                 id="path1595" />
              <path
                 style="fill:#ffffff"
                 d="m 746.3,676.1 -8.7,-5 -8.7,-5 -8.7,-5 -8.7,-5 -8.7,-5 -8.7,-5 -4.3,5.5 8.7,5 8.7,5 8.7,5 8.7,5 8.7,5 8.7,5 8.7,5 3.6,2.1 v -8"
                 class="st3"
                 id="path1597" />
              <path
                 style="fill:#ffffff"
                 d="m 404.8,486.9 3.6,-4.6 0.7,-0.9"
                 class="st3"
                 id="path1599" />
              <path
                 style="fill:#ffffff"
                 d="m 618.7,610.4 4.3,-5.5"
                 class="st3"
                 id="path1601" />
              <path
                 style="fill:#ffffff"
                 d="m 262.1,404.5 4.3,-5.5"
                 class="st3"
                 id="path1603" />
              <path
                 style="fill:#ffffff"
                 d="m 192.3,364.2 1.9,1.1 8.7,5 8.9,5.1 8.7,5 8.7,5 8.7,5 8.7,5 8.7,5 v -8 0 l -2,-1.2 -8.7,-5 -8.7,-5 -8.7,-5 -8.7,-5 -8.7,-5 -4.4,-2.6 -8.7,-5 z"
                 class="st3"
                 id="path1605" />
            </g>
          </g>
          <g
             style="opacity:0.3"
             class="st1"
             transform="matrix(0.5,0,0,0.5,-103.0901,-422.92251)"
             id="g1617">
            <g
               id="g1615">
              <path
                 d="m 192.3,177.3 v 6.9 10 10 10 10 10 10 10 10 10 10 10 10 10 10 10 10 10 10 0 l 4.3,-5.5 v -0.5 -1.5 -0.5 -1.5 -4.9 -10 -10 -10 -10 -10 -10 -10 -10 -10 -10 -10 -10 -10 -10 -10 -10 -10 z"
                 id="path1611" />
              <path
                 d="M 196.6,358.7"
                 id="path1613" />
            </g>
          </g>
          <polygon
             transform="translate(-8.7266,-380)"
             id="polygon1619"
             points="188.9,251.5 188,251 185.6,253.4 " />
          <path
             d="m 72.3734,-186.9 3,-1.7 -0.9,-0.5"
             id="path1621" />
          <path
             style="opacity:0.3;fill:#ffffff"
             id="path1623"
             d="m 348.9734,-215.7 -73.1,42.2 -284.6,-164.3 73.1,-42.2 z m -5.5,1.1 -281,-162.3 -65.8,38 281,162.2 z"
             class="st4" />
          <g
             style="opacity:0.3"
             class="st1"
             transform="matrix(0.5,0,0,0.5,-103.0901,-422.92251)"
             id="g1645">
            <g
               id="g1643">
              <path
                 style="fill:#ffffff"
                 d="m 457,174.3 -5.3,-3 -8.7,-5 -8.7,-5 -8.7,-5 -8.7,-5 -8.7,-5 -4.3,-2.5 -8.3,-4.8 -4.7,2.7 -8.7,5 -8.7,5 -8.7,5 -8.7,5 -8.7,5 -8.7,5 -0.6,0.3 -4.3,2.5 -5,2.9 -0.4,0.2 -8.8,5.1 -8.7,5 -8.7,5 -8.7,5 -8.7,5 -8.7,5 -2,1.2 2,1.2 0.7,0.4 8.7,5 8.7,5 8.7,5 8.7,5 0.1,0.1 8,4.6 8.7,5 0.4,0.2 5,2.9 1.7,1 z"
                 class="st3"
                 id="path1625" />
              <path
                 style="fill:#ffffff"
                 d="m 670.9,297.8 -5.3,-3 -8.7,-5 -8.7,-5 -8.7,-5 -8.7,-5 -8.7,-5 -4.3,-2.5 -8.3,-4.8 -6.8,3.9 -8.7,5 -8.7,5 -8.7,5 -8.7,5 -8.7,5 -8.7,5 -4.3,2.5 -6.1,3.5 -8.7,5 -8.7,5 -8.7,5 -8.7,5 -8.7,5 -8.7,5 6.1,3.5 8.7,5 8.7,5 8.7,5 8.7,5 8.7,5 8.7,5 3.1,1.8 z"
                 class="st3"
                 id="path1627" />
              <path
                 style="fill:#ffffff"
                 d="M 752.4,344.9"
                 class="st3"
                 id="path1629" />
              <path
                 style="fill:#ffffff"
                 d="m 692.5,450.1 -3.1,-1.8 -6.1,-3.5 -8.7,-5 -8.7,-5 -8.7,-5 -8.7,-5 -8.7,-5 -8.7,-5 8.7,-5 8.7,-5 8.7,-5 8.7,-5 8.7,-5 8.7,-5 6.1,-3.5 4.3,-2.5 8.7,-5 8.7,-5 8.7,-5 8.7,-5 8.7,-5 8.7,-5 6.7,-3.9 8.3,4.8 4.3,2.5 8.7,5 8.7,5 8.7,5 8.7,5 8.7,5 5.3,3 z"
                 class="st3"
                 id="path1631" />
              <path
                 style="fill:#ffffff"
                 d="m 407.2,285.4 -3.1,-1.8 -6.1,-3.5 -8.7,-5 -8.7,-5 -8.7,-5 -8.7,-5 -8.7,-5 -8.7,-5 6.1,-3.5 8.7,-5 8.7,-5 8.7,-5 8.7,-5 8.7,-5 8.7,-5 4.3,-2.5 6.7,-3.9 8.7,-5 8.7,-5 8.7,-5 8.7,-5 8.7,-5 8.7,-5 8.3,4.8 4.3,2.5 5.3,3 8.7,5 8.7,5 8.7,5 8.7,5 8.7,5 z"
                 class="st3"
                 id="path1633" />
              <path
                 style="fill:#ffffff"
                 d="m 884.9,421.3 -0.1,-0.1 -5.1,-3 -8.7,-5 -8.7,-5 -8.7,-5 -8.7,-5 -8.7,-5 -4.3,-2.5 -8.3,-4.8 -121.1,69.9 8.7,5 8.7,5 8.7,5 8.7,5 8.7,5 8.7,5 6.1,3.5 3,1.7 0.1,0.1 z"
                 class="st3"
                 id="path1635" />
              <path
                 style="fill:#ffffff"
                 d="m 599.6,256.7 -5.3,-3 -8.7,-5 -8.7,-5 -8.7,-5 -8.7,-5 -8.7,-5 -4.3,-2.5 -8.3,-4.8 -6.7,3.9 -8.7,5 -8.7,5 -8.7,5 -8.7,5 -8.7,5 -8.7,5 -4.3,2.5 -6.1,3.5 -8.7,5 -8.7,5 -8.7,5 -8.7,5 -8.7,5 -8.7,5 v 0 l 6.1,3.5 8.7,5 8.7,5 8.7,5 8.7,5 8.7,5 8.7,5 3.1,1.8 z"
                 class="st3"
                 id="path1637" />
              <path
                 style="fill:#ffffff"
                 d="m 385.8,133.2 -3.3,-1.9 -8.7,-5 -8.7,-5 -8.7,-5 -8.7,-5 -8.7,-5 -0.6,-0.3 -4.3,-2.5 -5,-2.9 -0.4,-0.2 -1.2,-0.7 -1.8,-1 0.1,-0.1 -0.1,0.1 -6.2,3.6 -8.7,5 -8.7,5 -8.7,5 -8.7,5 -8.7,5 -5.4,3.1 -3.7,2.1 -8.7,5 -8.7,5 -8.7,5 -5.4,3.1 -5.1,2.9 -8.7,5 -8.7,5 -8.7,5 h -0.1 0.1 l 1.8,1 8.7,5 8.7,5 8.7,5 3.3,1.9 5.8,3.3 7.6,4.4 0.9,0.5 8.7,5 5.9,3.4 -0.2,0.1 z"
                 class="st3"
                 id="path1639" />
              <path
                 style="fill:#ffffff"
                 d="m 742.3,339 -5.3,3 -8.7,5 -8.7,5 -8.7,5 -8.7,5 -8.7,5 -4.3,2.5 -2.8,1.6 -4.3,2.5 -7.9,4.6 -8.7,5 -8.7,5 -8.7,5 -8.7,5 -8.7,5 -8.7,5 -1.2,0.7 -60.8,-35.3 6.1,-3.5 8.7,-5 8.7,-5 8.7,-5 8.7,-5 8.7,-5 8.7,-5 4.3,-2.5 6.7,-3.9 8.7,-5 8.7,-5 8.7,-5 8.7,-5 8.7,-5 8.7,-5 z"
                 class="st3"
                 id="path1641" />
            </g>
          </g>
          <polygon
             transform="translate(-8.7266,-380)"
             style="opacity:0.3;fill:#ffffff"
             id="polygon1647"
             points="102.7,21.3 106.2,23.3 40.4,61.3 36.8,59.3 "
             class="st4" />
          <polygon
             transform="translate(-8.7266,-380)"
             style="opacity:0.3;fill:#ffffff"
             id="polygon1649"
             points="138.3,41.8 141.9,43.9 76,81.9 72.5,79.8 "
             class="st4" />
          <polygon
             transform="translate(-8.7266,-380)"
             style="opacity:0.3;fill:#ffffff"
             id="polygon1651"
             points="173.9,62.4 177.5,64.5 111.7,102.5 108.1,100.4 "
             class="st4" />
          <polygon
             transform="translate(-8.7266,-380)"
             style="opacity:0.3;fill:#ffffff"
             id="polygon1653"
             points="209.6,83 213.2,85.1 147.3,123.1 143.8,121 "
             class="st4" />
          <polygon
             transform="translate(-8.7266,-380)"
             style="opacity:0.3;fill:#ffffff"
             id="polygon1655"
             points="245.3,103.6 248.8,105.7 183,143.7 179.4,141.6 "
             class="st4" />
          <polygon
             transform="translate(-8.7266,-380)"
             style="opacity:0.3;fill:#ffffff"
             id="polygon1657"
             points="280.9,124.2 284.5,126.2 218.7,164.2 215.1,162.2 "
             class="st4" />
          <polygon
             transform="translate(-8.7266,-380)"
             style="opacity:0.3;fill:#ffffff"
             id="polygon1659"
             points="316.6,144.8 320.1,146.8 254.3,184.8 250.7,182.8 "
             class="st4" />
          <polygon
             transform="translate(-8.7266,-380)"
             style="opacity:0.3;fill:#ffffff"
             id="polygon1661"
             points="354,170.2 354.6,170.6 288.3,208.9 287.6,208.5 "
             class="st4" />
          <path
             style="opacity:0.3"
             id="path1663"
             d="m 348.9734,-117.4 v 5 0.7 l -4.3,2.5 -4.3,2.5 -4.3,2.5 -4.3,2.5 -4.3,2.5 -4.3,2.5 -4.3,2.5 -4.3,2.5 -4.3,2.5 -4.3,2.5 -4.3,2.5 -4.3,2.5 -4.3,2.5 -4.3,2.5 -4.3,2.5 -4.3,2.5 -3.9,2.2 v -0.7 -5 m 72.7,-42.2 v -3.4 -5 -5 -5 -5 -5 -5 -5 -5 -5 -5 -5 -5 -5 -5 -5 -5 -5 -5 -5 0 0 0 0 l -2,1.2 -4.3,2.5 -1.8,1.1 -4,2.3 -4.3,2.5 -4.3,2.5 -4.3,2.5 -4.3,2.5 -4.3,2.5 -2.2,1.2 -3.2,1.8 -4.3,2.5 -4.3,2.5 -4.3,2.5 -4.3,2.5 -4.3,2.5 -4.3,2.5 -4.3,2.5 -2.2,1.2 -1.5,0.8 v 1.5 5 5 0 3.1 5 2.1 5 5 5 5 5 5 5 5 5 5 5 5 5 5 0.9 0.7 5 m 72.8,-42 z m -37.9,-46.2 -3,-1.2 v -21.4 l 3,-1.7 z m 0,36.2 -3,-1.6 v -29.7 l 3,-1.7 z m 0,27.5 -3,-1.2 v -21.3 l 3,-1.7 z m 33.2,-19.2 -3,-1.2 v -21.3 l 3,-1.7 z m 0,-27.4 -3,-1.6 v -29.7 l 3,-1.7 z m 0,-36.3 -3,-1.2 v -21.4 l 3,-1.7 z m -65.4,11.3 v 0 l 0.6,0.2 0.2,0.1 v 1.3 5 5 1 2.1 5 2.7 5 1.7 5 5 5 5 5 5 5 0.9 5 5 5 5 5 1 0 l -0.7,-0.4 v -0.1 -5 -1.2 -5 -5 -5 -5 -5 -5 -5 -5 -5 -5 -5 -5 -5 -0.7 -5 -1.5 -0.6 -1.5 -5 -5 m 66.9,-37.9 -66.3,38.3 -0.6,-0.4 66.3,-38.3 z m -34.8,45.8 -29.8,17.2 v -2.9 l 26.9,-15.5 z m 0,36.2 -29.8,17.3 v -3.4 l 26.9,-15.5 z m 0,27.5 -29.8,17.2 v -2.9 l 26.9,-15.5 z m 33.2,-82.9 -29.8,17.2 v -2.9 l 26.8,-15.5 z m 0,36.3 -29.8,17.2 v -3.4 l 26.9,-15.5 z m 0,27.4 -29.8,17.2 v -2.9 l 26.9,-15.5 z"
             class="st1" />
          <polygon
             transform="translate(-8.7266,-380)"
             style="opacity:0.3;fill:#ffffff"
             id="polygon1665"
             points="316.8,215.2 319.8,216.4 290,233.6 290,230.7 "
             class="st4" />
          <polygon
             transform="translate(-8.7266,-380)"
             style="opacity:0.3;fill:#ffffff"
             id="polygon1667"
             points="316.8,251 319.8,252.6 290,269.9 290,266.5 "
             class="st4" />
          <polygon
             transform="translate(-8.7266,-380)"
             style="opacity:0.3;fill:#ffffff"
             id="polygon1669"
             points="316.8,278.9 319.8,280.1 290,297.3 290,294.4 "
             class="st4" />
          <polygon
             transform="translate(-8.7266,-380)"
             style="opacity:0.3;fill:#ffffff"
             id="polygon1671"
             points="350,196 353,197.2 323.1,214.5 323.1,211.5 "
             class="st4" />
          <polygon
             transform="translate(-8.7266,-380)"
             style="opacity:0.3;fill:#ffffff"
             id="polygon1673"
             points="350,231.8 353,233.5 323.1,250.7 323.1,247.4 "
             class="st4" />
          <polygon
             transform="translate(-8.7266,-380)"
             style="opacity:0.3;fill:#ffffff"
             id="polygon1675"
             points="350,259.7 353,260.9 323.1,278.1 323.1,275.2 "
             class="st4" />
          <polygon
             transform="translate(-8.7266,-380)"
             style="fill:#808080"
             id="polygon1677"
             points="330.9,267.9 330.9,269 330.9,270.7 330.9,273.6 330.9,273.9 330.9,274.2 331.1,274.6 331.3,274.7 331.3,274.8 331.4,274.8 331.8,275 332.4,275.1 332.9,275 333.4,274.8 333.7,274.6 333.8,274.2 333.8,273.3 333.8,205.4 333.8,203.4 333.8,198.4 333.8,193.4 333.8,188.4 333.7,188.1 333.4,187.8 332.9,187.6 332.4,187.6 331.8,187.6 331.4,187.8 331.1,188.1 330.9,188.4 330.9,193.4 330.9,198.4 330.9,203.4 330.9,207 330.9,209.9 330.9,210.4 330.6,210.2 330.6,210.1 330.2,210.4 329.8,210.6 329.8,213.7 329.8,213.8 330.9,214.5 330.9,214.8 330.9,219.8 330.9,224.8 330.9,229.8 330.9,234.8 330.9,239.8 330.9,242.8 330.9,244.8 330.9,245.8 330.9,246.2 330.9,246.6 330.6,246.4 330.2,246.6 330,246.7 329.8,246.8 329.8,246.9 329.8,249.5 329.8,250 330.9,250.7 330.9,251 330.9,252.9 330.9,257.9 330.9,262.9 "
             class="st5" />
          <polygon
             transform="translate(-8.7266,-380)"
             style="fill:#808080"
             id="polygon1679"
             points="313.4,234.6 313.4,235.6 313.4,237.1 313.4,237.8 313.4,242.8 313.4,243 313.4,248 313.4,253 313.4,256.3 313.4,256.7 313.1,256.5 313,256.5 312.6,256.7 312.3,256.9 312.3,257 312.3,259.7 312.3,260.2 313.4,260.9 313.4,261.2 313.4,264.1 313.4,269.1 313.4,274.1 313.4,279.1 313.4,280.8 313.4,283.7 313.4,284.1 313.4,284.4 313.5,284.7 313.7,284.9 313.8,284.9 313.8,285 314.3,285.1 314.8,285.2 315.4,285.1 315.9,285 316.2,284.7 316.3,284.4 316.3,283.4 316.3,282.4 316.3,282.1 316.3,279.2 316.3,277.5 316.3,276.2 316.3,271.2 316.3,266.2 316.3,261.2 316.3,258 316.3,257.8 316.3,257.3 316.3,254.7 316.3,251.3 316.3,249.4 316.3,244.4 316.3,243.8 316.3,238.8 316.3,237.3 316.3,236.3 316.3,235 316.3,230 316.3,225 316.3,221.8 316.3,221.6 316.3,221.5 316.3,218.4 316.3,215.5 316.3,213.5 316.3,208.5 316.3,203.5 316.3,198.5 316.2,198.2 315.9,197.9 315.4,197.8 314.8,197.7 314.3,197.8 313.8,197.9 313.5,198.2 313.4,198.5 313.4,202.1 313.4,207.1 313.4,212.1 313.4,220.1 313.4,220.5 313,220.3 312.6,220.5 312.3,220.8 312.3,223.9 313.4,224.6 313.4,225 313.4,229.6 "
             class="st5" />
          <path
             style="opacity:0.3;fill:#ffffff"
             d="m 322.1734,-191.6 0.1,0.3 0.3,0.3 0.5,0.2 0.6,0.1 0.6,-0.1 0.5,-0.2 0.3,-0.3 0.1,-0.3 -0.1,-0.3 -0.3,-0.3 -0.5,-0.2 -0.6,-0.1 -0.6,0.1 -0.5,0.2 -0.3,0.3 z"
             class="st4"
             id="path1681" />
          <path
             style="opacity:0.3;fill:#ffffff"
             d="m 304.6734,-181.5 0.1,-0.3 0.3,-0.3 0.5,-0.2 0.6,-0.1 0.6,0.1 0.5,0.2 0.3,0.3 0.1,0.3 -0.1,0.3 -0.3,0.3 -0.5,0.2 -0.6,0.1 -0.6,-0.1 -0.5,-0.2 -0.3,-0.3 z"
             class="st4"
             id="path1683" />
          <path
             style="opacity:0.3;fill:#ffffff"
             d="m 303.5734,-159.2 0.8,0.5 0.4,0.2 v -0.9 l -0.4,-0.2 -0.4,0.2 -0.4,0.2"
             class="st4"
             id="path1685" />
          <path
             style="opacity:0.3;fill:#ffffff"
             d="m 321.0734,-133.2 0.2,-0.1 0.2,-0.1 0.4,-0.2 v 0 l 0.3,0.2 v 0.6 0.3 l -0.4,-0.2 -0.7,-0.5"
             class="st4"
             id="path1687" />
          <path
             style="opacity:0.3;fill:#ffffff"
             d="m 321.0734,-169.4 0.8,0.4 0.4,0.2 v -0.9 l -0.4,-0.2 z"
             class="st4"
             id="path1689" />
          <path
             style="opacity:0.3;fill:#ffffff"
             d="m 304.6734,-122.4 v -0.9 l -0.3,-0.2 v 0 0 l -0.4,0.2 -0.4,0.2"
             class="st4"
             id="path1691" />
        </g>
        <g
           id="g1353"
           transform="translate(1045.3602,440.84733)">
          <g
             transform="translate(-8.7266,-380)"
             id="g1015">
            <polyline
               style="fill:#914b2d"
               id="polyline1013"
               points="0,140.6 0,141.3 0,146.3 4.6,148.9 8.9,151.4 13.3,153.9 17.6,156.4 21.9,158.9 26.3,161.4    30.6,163.9 34.9,166.4 37.8,168.1 42.1,170.6 46.4,173.1 50.7,175.6 55.1,178.1 59.4,180.6 63.7,183.1 68.1,185.6 72.4,188.1    76.7,190.6 81.1,193.1 83.2,190.8 84.1,191.3 84.8,191.7 89.1,194.2 93.5,196.7 97.8,199.2 97.9,199.4 99.9,204 102.9,205.7    107.3,208.2 111.6,210.7 115.9,213.2 120.2,215.7 124.6,218.2 128.9,220.7 133.2,223.2 137.6,225.7 141.9,228.2 146.7,230.9    151,233.4 155.3,235.9 159.6,238.4 164,240.9 168.3,243.4 172.6,245.9 177,248.4 181.3,250.9 185.6,253.4 185.6,253.4 185.6,253.4    188.9,251.5 188.9,251.5 188.9,251.5 189.7,252 194.1,254.5 198.4,257 202.7,259.5 203,260.2 205.1,264.7 209.9,267.5 214.2,270    218.6,272.5 222.9,275 227.2,277.5 231.6,280 235.9,282.5 240.2,285 244.5,287.5 248.9,290 249.9,290.6 254.2,293.1 258.6,295.6    262.9,298.1 267.2,300.6 271.5,303.1 275.9,305.6 280.2,308.1 284.5,310.6 284.5,310.6 284.5,310.6 284.5,310.6 284.5,310.6    288.4,308.3 292.7,305.8 297.1,303.3 301.4,300.8 305.7,298.3 310,295.8 314.4,293.3 318.7,290.8 323,288.3 327.4,285.8    331.7,283.3 336,280.8 340.4,278.3 344.7,275.8 349,273.3 353.3,270.8 357.7,268.3 357.7,267.6 357.7,262.6 357.7,262.6    357.7,262.6 357.7,259.3 357.7,254.3 357.7,249.3 357.7,244.3 357.7,239.3 357.7,234.3 357.7,229.3 357.7,224.3 357.7,219.3    357.7,214.3 357.7,209.3 357.7,204.3 357.7,199.3 357.7,194.3 357.7,189.3 357.7,184.3 357.7,179.3 357.7,174.3 357.7,169.3    357.7,164.3 357.7,164.3 357.7,164.3 357.7,164.3 356.7,163.7 352.3,161.2 348,158.7 343.7,156.2 339.3,153.7 335,151.2    330.7,148.7 326.3,146.2 322,143.7 321,143.1 316.7,140.6 312.3,138.1 308,135.6 303.7,133.1 299.3,130.6 295,128.1 290.7,125.6    286.4,123.1 285.3,122.5 281,120 276.7,117.5 272.4,115 268,112.5 263.7,110 259.4,107.5 255,105 250.7,102.5 249.7,101.9    245.4,99.4 241,96.9 236.7,94.4 232.4,91.9 228,89.4 223.7,86.9 219.4,84.4 215,81.9 214,81.3 209.7,78.8 205.4,76.3 201,73.8    196.7,71.3 192.4,68.8 188,66.3 183.7,63.8 179.4,61.3 178.4,60.8 174,58.3 169.7,55.8 165.4,53.3 161,50.8 156.7,48.3 152.4,45.8    148.1,43.3 143.7,40.8 142.7,40.2 138.4,37.7 134,35.2 129.7,32.7 125.4,30.2 121.1,27.7 116.7,25.2 112.4,22.7 108.1,20.2    103.5,17.5 99.1,15 94.8,12.5 90.5,10 86.1,7.5 81.8,5 77.5,2.5 73.1,0 69.3,2.2 65,4.7 60.6,7.2 56.3,9.7 52,12.2 47.6,14.7    43.3,17.2 39,19.7 34.6,22.2 30.3,24.7 26,27.2 21.7,29.7 17.3,32.2 13,34.7 8.7,37.2 4.3,39.7 0,42.2 0,45.6 0,50.6 0,55.6    0,60.6 0,65.6 0,70.6 0,75.6 0,80.6 0,85.6 0,90.6 0,95.6 0,100.6 0,105.6 0,110.6 0,115.6 0,120.6 0,125.6 0,130.6 0,135.6    0,140.6  "
               class="st0" />
          </g>
          <g
             transform="translate(-8.7266,-380)"
             style="opacity:0.3"
             id="g1039"
             class="st1">
            <path
               d="m 250.7,189.4 1.8,1.1 0.3,0.2 v 4 5 1 2.1 5 0.8 5 1 2.5 5 5 5 5 2.9 5 5 5 5 5 5 5 5 l -2.2,2.7 v -4.4 -5 -5 -5 -5 -5 -5 -5 -5 -2.5 -5 -5 -5 -5 -1 -3.3 -5 -2.1 -5 -5 l 0.1,-5"
               id="path1017" />
            <path
               d="m 110.2,197.8 v -5 -5 -5 -5 -1.5 -1.1 -5 -5 -5 -5 -5 -5 -5 -5 -5 -4.8 -5 -2.1 -1 -5 -4 l -0.3,-0.2 -1.8,-1.1 v 5 5 5 2.1 5 5 5 5 5 5 5 5 5 5 2.3 1.1 5 5 5 5 1.8 1.2 z"
               id="path1019" />
            <path
               d="m 181.5,239 -2.2,2.7 v -1.3 -5 -5 -5 -5 -5 -5 -5 -5 -5 -5 -5 -5 -5 -5 -5 -2.1 -5 -5 -5 l 1.8,1.1 0.3,0.2"
               id="path1021" />
            <path
               d="M 179.3,241.7"
               id="path1023" />
            <path
               d="m 36.7,65.9 1.2,0.7 1,0.6 v 3.4 5 5 5 0 2.4 5 5 5 5 5 0.2 1.9 0.3 0.6 5 2.9 2.8 5 5 5 5 5 5 l -2.2,2.7 v -4.3 -5 -5 -5 -5 -5 -5 -2.9 -0.6 -5 -0.3 -5.4 -5 -5 -5 -5 -5 -5 -5 -5 -5"
               id="path1025" />
            <path
               d="m 217.2,170.1 v 4 5 1 2.1 5 2 5 5 5 5 5 5 5 5 5 1 2.5 5 5 5 5 1.8 l -2.2,2.7 v -3.2 -2.5 -5 -5 -5 -5 -1 -4.5 -5 -5 -5 -5 -5 -5 -5 -5 -5 -2.1 -5 -5 -5 l 1.8,1.1 0.4,0.1"
               id="path1027" />
            <path
               d="m 143.7,221.1 v -2.4 -5 -5 -5 -5 -5 -5 -5 -5 -1.8 -5 -5 -5 -5 -1.1 -1.1 -5 -5 -2.1 -5 -5 -5 l 1.8,1.1 0.3,0.2"
               id="path1029" />
            <path
               d="M 72.4,179.9"
               id="path1031" />
            <path
               d="m 74.5,177.2 -2.2,2.7 v -5.4 -5 -5 -5 -5 -5 -5 -5 -5 -5 -5 -5 -5 -5 -5 -2.9 -3.3 -0.3 -1.5 -5 -5 l 0.4,0.2 0.4,0.2 1.4,0.8 v 4.2 5 0.4 0.5 1.8 0.8 4.5 2.3 5 5 5 5 5 5 5 5 5 5 5 5 5 5"
               id="path1033" />
            <path
               d="m 145.8,128.9 v 4 5 1 2.1 5 3.6 5 1.1 1.8 5 5 5 5 0.9 5 5 5 5 5 5 5 5 l -2.2,2.7"
               id="path1035" />
            <path
               d="m 181.5,149.5 v 4 5 1 2.1 5 2.3 5 5 5 5 5 5 5 5 5 5 5 5 5 5"
               id="path1037" />
          </g>
          <g
             style="opacity:0.3"
             class="st1"
             transform="matrix(0.5,0,0,0.5,-103.0901,-422.92251)"
             id="g1069">
            <g
               id="g1067">
              <path
                 d="m 395.8,139 -4.7,2.7 -8.7,5 -8.7,5 -8.7,5 -8.7,5 -8.7,5 -8.7,5 -0.6,0.3 -4.3,2.5 -5,2.9 -0.4,0.2 -8.8,5.1 -8.7,5 -8.7,5 -8.7,5 -8.7,5 -8.7,5 -2,1.2"
                 id="path1041" />
              <path
                 d="m 538.5,221.3 5.3,-6.5 -3.4,2 -8.7,5 -8.7,5 -8.7,5 -8.7,5 -8.7,5 -8.7,5 -8.7,5 -4.3,2.5 -2.7,1.6 -8.7,5 -8.7,5 -8.7,5 -8.7,5 -8.7,5 -8.7,5 -8.7,5 5.3,0.4"
                 id="path1043" />
              <path
                 d="m 609.8,262.5 -6.8,3.9 -8.7,5 -8.7,5 -8.7,5 -8.7,5 -8.7,5 -8.7,5 -4.3,2.5 -6.1,3.5 -8.7,5 -8.7,5 -8.7,5 -8.7,5 -8.7,5 -8.7,5"
                 id="path1045" />
              <path
                 d="m 681.1,303.7 5.3,-6.5 -3.4,2 -8.7,5 -8.7,5 -8.7,5 -8.7,5 -8.7,5 -8.7,5 -8.7,5 -4.3,2.5 -2.7,1.6 -8.7,5 -8.7,5 -8.7,5 -8.7,5 -8.7,5 -8.7,5 -8.7,5 5.3,0.4"
                 id="path1047" />
              <path
                 d="m 560,373.6 6.1,-3.5 8.7,-5 8.7,-5 8.7,-5 8.7,-5 8.7,-5 8.7,-5 4.3,-2.5 6.7,-3.9 8.7,-5 8.7,-5 8.7,-5 8.7,-5 8.7,-5 8.7,-5"
                 id="path1049" />
              <path
                 d="m 829,379.5 -5.3,6.5 -6.7,3.9 -8.7,5 -8.7,5 -8.7,5 -8.7,5 -8.7,5 -8.7,5 -4.3,2.5 -6.1,3.5 -8.7,5 -8.7,5 -8.7,5 -8.7,5 -8.7,5 -8.7,5 -5.3,-0.4 2.7,-1.6 8.7,-5 8.7,-5 8.7,-5 8.7,-5 8.7,-5 8.7,-5 8.7,-5 4.3,-2.5 3.4,-2 8.7,-5 8.7,-5 8.7,-5 8.7,-5 8.7,-5 8.7,-5 8.6,-4.9"
                 id="path1051" />
              <path
                 d="m 346.1,250.1 -5.3,-0.4 2.7,-1.6 8.7,-5 8.7,-5 8.7,-5 8.7,-5 8.7,-5 8.7,-5 8.7,-5 4.3,-2.5 3.4,-2 8.7,-5 8.7,-5 8.7,-5 8.7,-5 8.7,-5 8.7,-5 8.7,-5 -5.3,6.5"
                 id="path1053" />
              <path
                 d="m 752.4,344.9 -6.7,3.9 -8.7,5 -8.7,5 -8.7,5 -8.7,5 -8.7,5 -8.7,5 -4.3,2.5 -6.1,3.5 -8.7,5 -8.7,5 -8.7,5 -8.7,5 -8.7,5 -8.7,5 -5.3,-0.4 2.7,-1.6 8.7,-5 8.7,-5 8.7,-5 8.7,-5 8.7,-5 8.7,-5 8.7,-5 4.3,-2.5 3.4,-2 8.7,-5 8.7,-5 8.7,-5 8.7,-5 8.7,-5 8.7,-5 8.7,-5 -5.4,6.6"
                 id="path1055" />
              <path
                 d="m 488.7,332.4 -5.3,-0.4 2.7,-1.6 8.7,-5 8.7,-5 8.7,-5 8.7,-5 8.7,-5 8.7,-5 8.7,-5 4.3,-2.5 3.4,-2 8.7,-5 8.7,-5 8.7,-5 8.7,-5 8.7,-5 8.7,-5 8.7,-5 -5.3,6.5"
                 id="path1057" />
              <path
                 d="m 346.1,250.1 6.1,-3.5 8.7,-5 8.7,-5 8.7,-5 8.7,-5 8.7,-5 8.7,-5 4.3,-2.5 6.7,-3.9 8.7,-5 8.7,-5 8.7,-5 8.7,-5 8.7,-5 8.7,-5"
                 id="path1059" />
              <path
                 d="m 274.7,208.9 -3.7,-0.3 -1.5,-0.1 1.5,-0.9 5.8,-3.3 8.8,-5.1 8.7,-5 8.7,-5 8.7,-5 8.7,-5 8.7,-5 0.4,-0.2 5,-2.9 4.3,-2.5 0.6,-0.3 1.3,-0.8 8.7,-5 8.7,-5 8.7,-5 8.7,-5 8.7,-5 8.7,-5 8.7,-5 -5.3,6.5"
                 id="path1061" />
              <path
                 d="m 204.8,168.5 v 0 l -5.3,-0.4 1.8,-1 8.7,-5 8.7,-5 8.7,-5 8.7,-5 8.7,-5 8.7,-5 8.7,-5 8.7,-5 8.7,-5 8.7,-5 8.7,-5 8.7,-5 8.7,-5 8.7,-5 8.7,-5 -5.2,6.4 -0.1,0.1 -6.2,3.6 -8.7,5 -8.7,5 -8.7,5 -8.7,5 -8.7,5 -5.4,3.1 -3.7,2.1 -8.7,5 -8.7,5 -8.7,5 -5.4,3.1 -5.1,2.9 -8.7,5 -8.7,5 -8.9,5.1"
                 id="path1063" />
              <path
                 d="m 538.5,221.3 -6.7,3.9 -8.7,5 -8.7,5 -8.7,5 -8.7,5 -8.7,5 -8.7,5 -4.3,2.5 -6.1,3.5 -8.7,5 -8.7,5 -8.7,5 -8.7,5 -8.7,5 -8.7,5"
                 id="path1065" />
            </g>
          </g>
          <g
             style="opacity:0.2"
             class="st2"
             transform="matrix(0.5,0,0,0.5,-103.0901,-422.92251)"
             id="g1097">
            <g
               id="g1095">
              <path
                 style="fill:#ffffff"
                 d="m 409.1,481.4 0.4,0.2 7.5,4.3 8.7,5 8.7,5 8.7,5 8.7,5 8.7,5 8.7,5 v 8 l -3.6,-2.1 -8.7,-5 -8.7,-5 -8.7,-5 -8.7,-5 -8.7,-5 -8.7,-5 -8.7,-5"
                 class="st3"
                 id="path1071" />
              <path
                 style="fill:#ffffff"
                 d="m 547.4,569.2 7.6,4.4 8.7,5 8.7,5 1.8,1 2.9,1.7 8.7,5 8.7,5 8.7,5 8.7,5 v -8 l -4.7,-2.7 -8.7,-5 -8.7,-5 -8.7,-5 -1.8,-1 -1.5,-0.8 -8.7,-5 -8.7,-5 -8.7,-5 -4.3,5.4"
                 class="st3"
                 id="path1073" />
              <path
                 style="fill:#ffffff"
                 d="m 266.5,399.1 7.9,4.6 8.7,5 8.7,5 8.7,5 8.7,5 8.7,5 8.7,5 v 8 l -3.6,-2.1 -8.7,-5 -8.7,-5 -8.7,-5 -8.7,-5 -8.7,-5 -8.7,-5 -8.7,-5"
                 class="st3"
                 id="path1075" />
              <path
                 style="fill:#ffffff"
                 d="m 623,604.9 7.9,4.6 8.7,5 8.7,5 8.7,5 8.7,5 8.7,5 8.7,5 v 8 l -3.6,-2.1 -8.7,-5 -8.7,-5 -8.7,-5 -8.7,-5 -8.7,-5 -8.7,-5 -8.7,-5"
                 class="st3"
                 id="path1077" />
              <path
                 style="fill:#ffffff"
                 d="m 337.8,440.2 6.2,3.6 8.7,5 8.7,5 8.7,5 1.8,1.1 8.5,4.9 8.7,5 8.7,5 v 1.8 6.1 l -6.7,-3.9 -8.7,-5 -8.7,-5 -8.7,-5 -1.8,-1.1 -3.7,-2.1 -8.7,-5 -8.7,-5 -8.7,-5"
                 class="st3"
                 id="path1079" />
              <path
                 style="fill:#ffffff"
                 d="m 337.8,440.2 -4.3,5.5"
                 class="st3"
                 id="path1081" />
              <path
                 style="fill:#ffffff"
                 d="m 540.3,557.1 -7.9,-4.6 -8.7,-5 -8.7,-5 -8.7,-5 -8.7,-5 -8.7,-5 -8.7,-5 -4.3,5.5 8.7,5 8.7,5 8.7,5 8.7,5 8.7,5 8.7,5 8.7,5 3.6,2.1"
                 class="st3"
                 id="path1083" />
              <path
                 style="fill:#ffffff"
                 d="m 746.3,676.1 -8.7,-5 -8.7,-5 -8.7,-5 -8.7,-5 -8.7,-5 -8.7,-5 -4.3,5.5 8.7,5 8.7,5 8.7,5 8.7,5 8.7,5 8.7,5 8.7,5 3.6,2.1 v -8"
                 class="st3"
                 id="path1085" />
              <path
                 style="fill:#ffffff"
                 d="m 404.8,486.9 3.6,-4.6 0.7,-0.9"
                 class="st3"
                 id="path1087" />
              <path
                 style="fill:#ffffff"
                 d="m 618.7,610.4 4.3,-5.5"
                 class="st3"
                 id="path1089" />
              <path
                 style="fill:#ffffff"
                 d="m 262.1,404.5 4.3,-5.5"
                 class="st3"
                 id="path1091" />
              <path
                 style="fill:#ffffff"
                 d="m 192.3,364.2 1.9,1.1 8.7,5 8.9,5.1 8.7,5 8.7,5 8.7,5 8.7,5 8.7,5 v -8 0 l -2,-1.2 -8.7,-5 -8.7,-5 -8.7,-5 -8.7,-5 -8.7,-5 -4.4,-2.6 -8.7,-5 z"
                 class="st3"
                 id="path1093" />
            </g>
          </g>
          <g
             style="opacity:0.3"
             class="st1"
             transform="matrix(0.5,0,0,0.5,-103.0901,-422.92251)"
             id="g1105">
            <g
               id="g1103">
              <path
                 d="m 192.3,177.3 v 6.9 10 10 10 10 10 10 10 10 10 10 10 10 10 10 10 10 10 10 0 l 4.3,-5.5 v -0.5 -1.5 -0.5 -1.5 -4.9 -10 -10 -10 -10 -10 -10 -10 -10 -10 -10 -10 -10 -10 -10 -10 -10 -10 z"
                 id="path1099" />
              <path
                 d="M 196.6,358.7"
                 id="path1101" />
            </g>
          </g>
          <polygon
             transform="translate(-8.7266,-380)"
             id="polygon1107"
             points="188,251 185.6,253.4 188.9,251.5 " />
          <path
             d="m 72.3734,-186.9 3,-1.7 -0.9,-0.5"
             id="path1109" />
          <path
             style="opacity:0.3;fill:#ffffff"
             id="path1111"
             d="m 348.9734,-215.7 -73.1,42.2 -284.6,-164.3 73.1,-42.2 z m -5.5,1.1 -281,-162.3 -65.8,38 281,162.2 z"
             class="st4" />
          <g
             style="opacity:0.3"
             class="st1"
             transform="matrix(0.5,0,0,0.5,-103.0901,-422.92251)"
             id="g1133">
            <g
               id="g1131">
              <path
                 style="fill:#ffffff"
                 d="m 457,174.3 -5.3,-3 -8.7,-5 -8.7,-5 -8.7,-5 -8.7,-5 -8.7,-5 -4.3,-2.5 -8.3,-4.8 -4.7,2.7 -8.7,5 -8.7,5 -8.7,5 -8.7,5 -8.7,5 -8.7,5 -0.6,0.3 -4.3,2.5 -5,2.9 -0.4,0.2 -8.8,5.1 -8.7,5 -8.7,5 -8.7,5 -8.7,5 -8.7,5 -2,1.2 2,1.2 0.7,0.4 8.7,5 8.7,5 8.7,5 8.7,5 0.1,0.1 8,4.6 8.7,5 0.4,0.2 5,2.9 1.7,1 z"
                 class="st3"
                 id="path1113" />
              <path
                 style="fill:#ffffff"
                 d="m 670.9,297.8 -5.3,-3 -8.7,-5 -8.7,-5 -8.7,-5 -8.7,-5 -8.7,-5 -4.3,-2.5 -8.3,-4.8 -6.8,3.9 -8.7,5 -8.7,5 -8.7,5 -8.7,5 -8.7,5 -8.7,5 -4.3,2.5 -6.1,3.5 -8.7,5 -8.7,5 -8.7,5 -8.7,5 -8.7,5 -8.7,5 6.1,3.5 8.7,5 8.7,5 8.7,5 8.7,5 8.7,5 8.7,5 3.1,1.8 z"
                 class="st3"
                 id="path1115" />
              <path
                 style="fill:#ffffff"
                 d="M 752.4,344.9"
                 class="st3"
                 id="path1117" />
              <path
                 style="fill:#ffffff"
                 d="m 692.5,450.1 -3.1,-1.8 -6.1,-3.5 -8.7,-5 -8.7,-5 -8.7,-5 -8.7,-5 -8.7,-5 -8.7,-5 8.7,-5 8.7,-5 8.7,-5 8.7,-5 8.7,-5 8.7,-5 6.1,-3.5 4.3,-2.5 8.7,-5 8.7,-5 8.7,-5 8.7,-5 8.7,-5 8.7,-5 6.7,-3.9 8.3,4.8 4.3,2.5 8.7,5 8.7,5 8.7,5 8.7,5 8.7,5 5.3,3 z"
                 class="st3"
                 id="path1119" />
              <path
                 style="fill:#ffffff"
                 d="m 407.2,285.4 -3.1,-1.8 -6.1,-3.5 -8.7,-5 -8.7,-5 -8.7,-5 -8.7,-5 -8.7,-5 -8.7,-5 6.1,-3.5 8.7,-5 8.7,-5 8.7,-5 8.7,-5 8.7,-5 8.7,-5 4.3,-2.5 6.7,-3.9 8.7,-5 8.7,-5 8.7,-5 8.7,-5 8.7,-5 8.7,-5 8.3,4.8 4.3,2.5 5.3,3 8.7,5 8.7,5 8.7,5 8.7,5 8.7,5 z"
                 class="st3"
                 id="path1121" />
              <path
                 style="fill:#ffffff"
                 d="m 884.9,421.3 -0.1,-0.1 -5.1,-3 -8.7,-5 -8.7,-5 -8.7,-5 -8.7,-5 -8.7,-5 -4.3,-2.5 -8.3,-4.8 -121.1,69.9 8.7,5 8.7,5 8.7,5 8.7,5 8.7,5 8.7,5 6.1,3.5 3,1.7 0.1,0.1 z"
                 class="st3"
                 id="path1123" />
              <path
                 style="fill:#ffffff"
                 d="m 599.6,256.7 -5.3,-3 -8.7,-5 -8.7,-5 -8.7,-5 -8.7,-5 -8.7,-5 -4.3,-2.5 -8.3,-4.8 -6.7,3.9 -8.7,5 -8.7,5 -8.7,5 -8.7,5 -8.7,5 -8.7,5 -4.3,2.5 -6.1,3.5 -8.7,5 -8.7,5 -8.7,5 -8.7,5 -8.7,5 -8.7,5 v 0 l 6.1,3.5 8.7,5 8.7,5 8.7,5 8.7,5 8.7,5 8.7,5 3.1,1.8 z"
                 class="st3"
                 id="path1125" />
              <path
                 style="fill:#ffffff"
                 d="m 385.8,133.2 -3.3,-1.9 -8.7,-5 -8.7,-5 -8.7,-5 -8.7,-5 -8.7,-5 -0.6,-0.3 -4.3,-2.5 -5,-2.9 -0.4,-0.2 -1.2,-0.7 -1.8,-1 0.1,-0.1 -0.1,0.1 -6.2,3.6 -8.7,5 -8.7,5 -8.7,5 -8.7,5 -8.7,5 -5.4,3.1 -3.7,2.1 -8.7,5 -8.7,5 -8.7,5 -5.4,3.1 -5.1,2.9 -8.7,5 -8.7,5 -8.7,5 h -0.1 0.1 l 1.8,1 8.7,5 8.7,5 8.7,5 3.3,1.9 5.8,3.3 7.6,4.4 0.9,0.5 8.7,5 5.9,3.4 -0.2,0.1 z"
                 class="st3"
                 id="path1127" />
              <path
                 style="fill:#ffffff"
                 d="m 742.3,339 -5.3,3 -8.7,5 -8.7,5 -8.7,5 -8.7,5 -8.7,5 -4.3,2.5 -2.8,1.6 -4.3,2.5 -7.9,4.6 -8.7,5 -8.7,5 -8.7,5 -8.7,5 -8.7,5 -8.7,5 -1.2,0.7 -60.8,-35.3 6.1,-3.5 8.7,-5 8.7,-5 8.7,-5 8.7,-5 8.7,-5 8.7,-5 4.3,-2.5 6.7,-3.9 8.7,-5 8.7,-5 8.7,-5 8.7,-5 8.7,-5 8.7,-5 z"
                 class="st3"
                 id="path1129" />
            </g>
          </g>
          <polygon
             transform="translate(-8.7266,-380)"
             style="opacity:0.3;fill:#ffffff"
             id="polygon1135"
             points="40.4,61.3 36.8,59.3 102.7,21.3 106.2,23.3 "
             class="st4" />
          <polygon
             transform="translate(-8.7266,-380)"
             style="opacity:0.3;fill:#ffffff"
             id="polygon1137"
             points="76,81.9 72.5,79.8 138.3,41.8 141.9,43.9 "
             class="st4" />
          <polygon
             transform="translate(-8.7266,-380)"
             style="opacity:0.3;fill:#ffffff"
             id="polygon1139"
             points="111.7,102.5 108.1,100.4 173.9,62.4 177.5,64.5 "
             class="st4" />
          <polygon
             transform="translate(-8.7266,-380)"
             style="opacity:0.3;fill:#ffffff"
             id="polygon1141"
             points="147.3,123.1 143.8,121 209.6,83 213.2,85.1 "
             class="st4" />
          <polygon
             transform="translate(-8.7266,-380)"
             style="opacity:0.3;fill:#ffffff"
             id="polygon1143"
             points="183,143.7 179.4,141.6 245.3,103.6 248.8,105.7 "
             class="st4" />
          <polygon
             transform="translate(-8.7266,-380)"
             style="opacity:0.3;fill:#ffffff"
             id="polygon1145"
             points="218.7,164.2 215.1,162.2 280.9,124.2 284.5,126.2 "
             class="st4" />
          <polygon
             transform="translate(-8.7266,-380)"
             style="opacity:0.3;fill:#ffffff"
             id="polygon1147"
             points="254.3,184.8 250.7,182.8 316.6,144.8 320.1,146.8 "
             class="st4" />
          <polygon
             transform="translate(-8.7266,-380)"
             style="opacity:0.3;fill:#ffffff"
             id="polygon1149"
             points="288.3,208.9 287.6,208.5 354,170.2 354.6,170.6 "
             class="st4" />
          <path
             style="opacity:0.3"
             id="path1151"
             d="m 348.9734,-117.4 v 5 0.7 l -4.3,2.5 -4.3,2.5 -4.3,2.5 -4.3,2.5 -4.3,2.5 -4.3,2.5 -4.3,2.5 -4.3,2.5 -4.3,2.5 -4.3,2.5 -4.3,2.5 -4.3,2.5 -4.3,2.5 -4.3,2.5 -4.3,2.5 -4.3,2.5 -3.9,2.2 v -0.7 -5 m 72.7,-42.2 v -3.4 -5 -5 -5 -5 -5 -5 -5 -5 -5 -5 -5 -5 -5 -5 -5 -5 -5 -5 -5 0 0 0 0 l -2,1.2 -4.3,2.5 -1.8,1.1 -4,2.3 -4.3,2.5 -4.3,2.5 -4.3,2.5 -4.3,2.5 -4.3,2.5 -2.2,1.2 -3.2,1.8 -4.3,2.5 -4.3,2.5 -4.3,2.5 -4.3,2.5 -4.3,2.5 -4.3,2.5 -4.3,2.5 -2.2,1.2 -1.5,0.8 v 1.5 5 5 0 3.1 5 2.1 5 5 5 5 5 5 5 5 5 5 5 5 5 5 0.9 0.7 5 m 72.8,-42 z m -37.9,-46.2 -3,-1.2 v -21.4 l 3,-1.7 z m 0,36.2 -3,-1.6 v -29.7 l 3,-1.7 z m 0,27.5 -3,-1.2 v -21.3 l 3,-1.7 z m 33.2,-19.2 -3,-1.2 v -21.3 l 3,-1.7 z m 0,-27.4 -3,-1.6 v -29.7 l 3,-1.7 z m 0,-36.3 -3,-1.2 v -21.4 l 3,-1.7 z m -65.4,11.3 v 0 l 0.6,0.2 0.2,0.1 v 1.3 5 5 1 2.1 5 2.7 5 1.7 5 5 5 5 5 5 5 0.9 5 5 5 5 5 1 0 l -0.7,-0.4 v -0.1 -5 -1.2 -5 -5 -5 -5 -5 -5 -5 -5 -5 -5 -5 -5 -5 -0.7 -5 -1.5 -0.6 -1.5 -5 -5 m 66.9,-37.9 -66.3,38.3 -0.6,-0.4 66.3,-38.3 z m -34.8,45.8 -29.8,17.2 v -2.9 l 26.9,-15.5 z m 0,36.2 -29.8,17.3 v -3.4 l 26.9,-15.5 z m 0,27.5 -29.8,17.2 v -2.9 l 26.9,-15.5 z m 33.2,-82.9 -29.8,17.2 v -2.9 l 26.8,-15.5 z m 0,36.3 -29.8,17.2 v -3.4 l 26.9,-15.5 z m 0,27.4 -29.8,17.2 v -2.9 l 26.9,-15.5 z"
             class="st1" />
          <polygon
             transform="translate(-8.7266,-380)"
             style="opacity:0.3;fill:#ffffff"
             id="polygon1153"
             points="290,233.6 290,230.7 316.8,215.2 319.8,216.4 "
             class="st4" />
          <polygon
             transform="translate(-8.7266,-380)"
             style="opacity:0.3;fill:#ffffff"
             id="polygon1155"
             points="290,269.9 290,266.5 316.8,251 319.8,252.6 "
             class="st4" />
          <polygon
             transform="translate(-8.7266,-380)"
             style="opacity:0.3;fill:#ffffff"
             id="polygon1157"
             points="290,297.3 290,294.4 316.8,278.9 319.8,280.1 "
             class="st4" />
          <polygon
             transform="translate(-8.7266,-380)"
             style="opacity:0.3;fill:#ffffff"
             id="polygon1159"
             points="323.1,214.5 323.1,211.5 350,196 353,197.2 "
             class="st4" />
          <polygon
             transform="translate(-8.7266,-380)"
             style="opacity:0.3;fill:#ffffff"
             id="polygon1161"
             points="323.1,250.7 323.1,247.4 350,231.8 353,233.5 "
             class="st4" />
          <polygon
             transform="translate(-8.7266,-380)"
             style="opacity:0.3;fill:#ffffff"
             id="polygon1163"
             points="323.1,278.1 323.1,275.2 350,259.7 353,260.9 "
             class="st4" />
          <polygon
             transform="translate(-8.7266,-380)"
             style="fill:#808080"
             id="polygon1165"
             points="330.9,257.9 330.9,262.9 330.9,267.9 330.9,269 330.9,270.7 330.9,273.6 330.9,273.9 330.9,274.2 331.1,274.6 331.3,274.7 331.3,274.8 331.4,274.8 331.8,275 332.4,275.1 332.9,275 333.4,274.8 333.7,274.6 333.8,274.2 333.8,273.3 333.8,205.4 333.8,203.4 333.8,198.4 333.8,193.4 333.8,188.4 333.7,188.1 333.4,187.8 332.9,187.6 332.4,187.6 331.8,187.6 331.4,187.8 331.1,188.1 330.9,188.4 330.9,193.4 330.9,198.4 330.9,203.4 330.9,207 330.9,209.9 330.9,210.4 330.6,210.2 330.6,210.1 330.2,210.4 329.8,210.6 329.8,213.7 329.8,213.8 330.9,214.5 330.9,214.8 330.9,219.8 330.9,224.8 330.9,229.8 330.9,234.8 330.9,239.8 330.9,242.8 330.9,244.8 330.9,245.8 330.9,246.2 330.9,246.6 330.6,246.4 330.2,246.6 330,246.7 329.8,246.8 329.8,246.9 329.8,249.5 329.8,250 330.9,250.7 330.9,251 330.9,252.9 "
             class="st5" />
          <polygon
             transform="translate(-8.7266,-380)"
             style="fill:#808080"
             id="polygon1167"
             points="313.4,225 313.4,229.6 313.4,234.6 313.4,235.6 313.4,237.1 313.4,237.8 313.4,242.8 313.4,243 313.4,248 313.4,253 313.4,256.3 313.4,256.7 313.1,256.5 313,256.5 312.6,256.7 312.3,256.9 312.3,257 312.3,259.7 312.3,260.2 313.4,260.9 313.4,261.2 313.4,264.1 313.4,269.1 313.4,274.1 313.4,279.1 313.4,280.8 313.4,283.7 313.4,284.1 313.4,284.4 313.5,284.7 313.7,284.9 313.8,284.9 313.8,285 314.3,285.1 314.8,285.2 315.4,285.1 315.9,285 316.2,284.7 316.3,284.4 316.3,283.4 316.3,282.4 316.3,282.1 316.3,279.2 316.3,277.5 316.3,276.2 316.3,271.2 316.3,266.2 316.3,261.2 316.3,258 316.3,257.8 316.3,257.3 316.3,254.7 316.3,251.3 316.3,249.4 316.3,244.4 316.3,243.8 316.3,238.8 316.3,237.3 316.3,236.3 316.3,235 316.3,230 316.3,225 316.3,221.8 316.3,221.6 316.3,221.5 316.3,218.4 316.3,215.5 316.3,213.5 316.3,208.5 316.3,203.5 316.3,198.5 316.2,198.2 315.9,197.9 315.4,197.8 314.8,197.7 314.3,197.8 313.8,197.9 313.5,198.2 313.4,198.5 313.4,202.1 313.4,207.1 313.4,212.1 313.4,220.1 313.4,220.5 313,220.3 312.6,220.5 312.3,220.8 312.3,223.9 313.4,224.6 "
             class="st5" />
          <path
             style="opacity:0.3;fill:#ffffff"
             d="m 322.1734,-191.6 0.1,0.3 0.3,0.3 0.5,0.2 0.6,0.1 0.6,-0.1 0.5,-0.2 0.3,-0.3 0.1,-0.3 -0.1,-0.3 -0.3,-0.3 -0.5,-0.2 -0.6,-0.1 -0.6,0.1 -0.5,0.2 -0.3,0.3 z"
             class="st4"
             id="path1169" />
          <path
             style="opacity:0.3;fill:#ffffff"
             d="m 304.6734,-181.5 0.1,-0.3 0.3,-0.3 0.5,-0.2 0.6,-0.1 0.6,0.1 0.5,0.2 0.3,0.3 0.1,0.3 -0.1,0.3 -0.3,0.3 -0.5,0.2 -0.6,0.1 -0.6,-0.1 -0.5,-0.2 -0.3,-0.3 z"
             class="st4"
             id="path1171" />
          <path
             style="opacity:0.3;fill:#ffffff"
             d="m 303.5734,-159.2 0.8,0.5 0.4,0.2 v -0.9 l -0.4,-0.2 -0.4,0.2 -0.4,0.2"
             class="st4"
             id="path1173" />
          <path
             style="opacity:0.3;fill:#ffffff"
             d="m 321.0734,-133.2 0.2,-0.1 0.2,-0.1 0.4,-0.2 v 0 l 0.3,0.2 v 0.6 0.3 l -0.4,-0.2 -0.7,-0.5"
             class="st4"
             id="path1175" />
          <path
             style="opacity:0.3;fill:#ffffff"
             d="m 321.0734,-169.4 0.8,0.4 0.4,0.2 v -0.9 l -0.4,-0.2 z"
             class="st4"
             id="path1177" />
          <path
             style="opacity:0.3;fill:#ffffff"
             d="m 304.6734,-122.4 v -0.9 l -0.3,-0.2 v 0 0 l -0.4,0.2 -0.4,0.2"
             class="st4"
             id="path1179" />
        </g>
      </g>
    </g>
  </g>
  <metadata
     id="metadata59">
    <rdf:RDF>
      <cc:Work>
        <dc:format>image/svg+xml</dc:format>
        <dc:type
           rdf:resource="http://purl.org/dc/dcmitype/StillImage" />
        <cc:license
           rdf:resource="http://creativecommons.org/licenses/publicdomain/" />
        <dc:publisher>
          <cc:Agent
             rdf:about="http://openclipart.org/">
            <dc:title>Openclipart</dc:title>
          </cc:Agent>
        </dc:publisher>
        <dc:title>Genesis mirror</dc:title>
        <dc:date>2010-03-15T01:26:39</dc:date>
        <dc:description>My dream blue and red</dc:description>
        <dc:source>https://openclipart.org/detail/31723/genesis-mirror-by-insan</dc:source>
        <dc:creator>
          <cc:Agent>
            <dc:title>insan</dc:title>
          </cc:Agent>
        </dc:creator>
        <dc:subject>
          <rdf:Bag>
            <rdf:li>dream</rdf:li>
          </rdf:Bag>
        </dc:subject>
      </cc:Work>
      <cc:License
         rdf:about="http://creativecommons.org/licenses/publicdomain/">
        <cc:permits
           rdf:resource="http://creativecommons.org/ns#Reproduction" />
        <cc:permits
           rdf:resource="http://creativecommons.org/ns#Distribution" />
        <cc:permits
           rdf:resource="http://creativecommons.org/ns#DerivativeWorks" />
      </cc:License>
    </rdf:RDF>
  </metadata>
</svg>
